<svg width="16" height="16" viewBox="0 0 16 16" fill="none" xmlns="http://www.w3.org/2000/svg">
<path d="M6.72743 1C5.59465 1 4.48731 1.33591 3.54544 1.96525C2.60357 2.59458 1.86947 3.48909 1.43598 4.53564C1.00248 5.58219 0.889059 6.73378 1.11005 7.8448C1.33105 8.95581 1.87653 9.97634 2.67753 10.7773C3.47852 11.5783 4.49905 12.1238 5.61007 12.3448C6.72108 12.5658 7.87268 12.4524 8.91923 12.0189C9.96578 11.5854 10.8603 10.8513 11.4896 9.90942C12.119 8.96755 12.4549 7.86021 12.4549 6.72743C12.4548 5.20845 11.8513 3.75171 10.7772 2.67763C9.70315 1.60355 8.24641 1.0001 6.72743 1Z" stroke="black" stroke-width="1.82102" stroke-miterlimit="10"/>
<path d="M10.9995 11L14.9995 15" stroke="black" stroke-width="1.82102" stroke-miterlimit="10" stroke-linecap="round"/>
</svg>
