<svg width="56" height="56" viewBox="0 0 56 56" fill="none" xmlns="http://www.w3.org/2000/svg">
<path d="M27.5486 0C12.3584 0 0 12.3584 0 27.5486C0 42.7387 12.3584 55.0971 27.5486 55.0971C42.7387 55.0971 55.0971 42.7387 55.0971 27.5486C55.0971 12.3584 42.7387 0 27.5486 0ZM41.8857 18.3158L24.0851 39.507C23.8899 39.7396 23.6469 39.9275 23.3727 40.058C23.0985 40.1884 22.7994 40.2585 22.4958 40.2633H22.46C22.163 40.2632 21.8693 40.2006 21.598 40.0797C21.3267 39.9588 21.0839 39.7822 20.8853 39.5613L13.2564 31.0848C13.0627 30.8794 12.912 30.6372 12.8131 30.3726C12.7143 30.1081 12.6694 29.8264 12.681 29.5442C12.6925 29.262 12.7604 28.985 12.8806 28.7294C13.0008 28.4738 13.1708 28.2448 13.3807 28.0559C13.5907 27.867 13.8363 27.722 14.1031 27.6293C14.3699 27.5366 14.6525 27.4982 14.9343 27.5164C15.2162 27.5345 15.4915 27.6088 15.7443 27.7349C15.997 27.8609 16.222 28.0363 16.406 28.2505L22.4044 34.9152L38.6408 15.5901C39.005 15.169 39.5203 14.9082 40.0753 14.864C40.6302 14.8197 41.1803 14.9957 41.6066 15.3538C42.0329 15.7119 42.3011 16.2233 42.3534 16.7776C42.4056 17.3318 42.2376 17.8844 41.8857 18.3158Z" fill="#721EA6"/>
</svg>
