<svg width="17" height="17" viewBox="0 0 17 17" fill="none" xmlns="http://www.w3.org/2000/svg">
<path d="M7.23341 1C6.00056 1 4.79539 1.36558 3.77031 2.05052C2.74524 2.73545 1.94628 3.70898 1.47449 4.84798C1.0027 5.98699 0.879259 7.24032 1.11978 8.44948C1.36029 9.65864 1.95397 10.7693 2.82573 11.6411C3.69748 12.5128 4.80817 13.1065 6.01733 13.347C7.22649 13.5876 8.47982 13.4641 9.61883 12.9923C10.7578 12.5205 11.7314 11.7216 12.4163 10.6965C13.1012 9.67142 13.4668 8.46626 13.4668 7.23341C13.4667 5.58024 12.8099 3.99481 11.641 2.82584C10.472 1.65687 8.88658 1.00011 7.23341 1Z" stroke="#95969A" stroke-width="1.5" stroke-miterlimit="10"/>
<path d="M11.8848 11.8838L16.2381 16.2371" stroke="#95969A" stroke-width="1.5" stroke-miterlimit="10" stroke-linecap="round"/>
</svg>
