<svg width="23" height="23" viewBox="0 0 23 23" fill="none" xmlns="http://www.w3.org/2000/svg">
<path d="M21.1114 15.561H7.92918C7.58745 15.561 7.25972 15.4253 7.01808 15.1836C6.77644 14.942 6.64069 14.6142 6.64069 14.2725V1.09026C6.64069 0.801106 6.52582 0.523794 6.32136 0.31933C6.11689 0.114866 5.83958 0 5.55042 0C5.26127 0 4.98396 0.114866 4.77949 0.31933C4.57503 0.523794 4.46016 0.801106 4.46016 1.09026V4.46016H1.09026C0.801106 4.46016 0.523794 4.57503 0.31933 4.77949C0.114866 4.98396 0 5.26127 0 5.55042C0 5.83958 0.114866 6.11689 0.31933 6.32136C0.523794 6.52582 0.801106 6.64069 1.09026 6.64069H4.46016V14.2725C4.46121 15.1922 4.82703 16.074 5.47737 16.7243C6.12771 17.3747 7.00946 17.7405 7.92918 17.7415H15.561V21.1114C15.561 21.4006 15.6759 21.6779 15.8803 21.8824C16.0848 22.0868 16.3621 22.2017 16.6513 22.2017C16.9404 22.2017 17.2177 22.0868 17.4222 21.8824C17.6267 21.6779 17.7415 21.4006 17.7415 21.1114V17.7415H21.1114C21.4006 17.7415 21.6779 17.6267 21.8824 17.4222C22.0868 17.2177 22.2017 16.9404 22.2017 16.6513C22.2017 16.3621 22.0868 16.0848 21.8824 15.8803C21.6779 15.6759 21.4006 15.561 21.1114 15.561Z" fill="#721EA6"/>
<path d="M9.01995 6.64048H14.273C14.6148 6.64048 14.9425 6.77624 15.1841 7.01787C15.4258 7.25951 15.5615 7.58725 15.5615 7.92898V13.1821C15.5615 13.4712 15.6764 13.7485 15.8809 13.953C16.0853 14.1575 16.3626 14.2723 16.6518 14.2723C16.9409 14.2723 17.2182 14.1575 17.4227 13.953C17.6272 13.7485 17.742 13.4712 17.742 13.1821V7.92898C17.741 7.00926 17.3752 6.12751 16.7248 5.47717C16.0745 4.82683 15.1927 4.46101 14.273 4.45996H9.01995C8.73079 4.45996 8.45348 4.57483 8.24902 4.77929C8.04455 4.98375 7.92969 5.26107 7.92969 5.55022C7.92969 5.83938 8.04455 6.11669 8.24902 6.32115C8.45348 6.52562 8.73079 6.64048 9.01995 6.64048Z" fill="#721EA6"/>
</svg>
