<svg width="25" height="24" viewBox="0 0 25 24" fill="none" xmlns="http://www.w3.org/2000/svg">
<path d="M20.9038 1.07715H4.09615C3.27572 1.07948 2.48956 1.40643 1.90942 1.98657C1.32928 2.56671 1.00233 3.35287 1 4.1733V14.7887C1.00233 15.6091 1.32928 16.3953 1.90942 16.9754C2.48956 17.5556 3.27572 17.8825 4.09615 17.8848H6.30769V22.3079L11.4893 17.9877C11.5689 17.9212 11.6693 17.8848 11.773 17.8848H20.9038C21.7243 17.8825 22.5104 17.5556 23.0906 16.9754C23.6707 16.3953 23.9977 15.6091 24 14.7887V4.1733C23.9977 3.35287 23.6707 2.56671 23.0906 1.98657C22.5104 1.40643 21.7243 1.07948 20.9038 1.07715Z" stroke="#721EA6" stroke-width="2" stroke-linejoin="round"/>
</svg>
