<svg width="18" height="16" viewBox="0 0 18 16" fill="none" xmlns="http://www.w3.org/2000/svg">
<path d="M14.2404 1H3.05962C2.51385 1.00155 1.99088 1.21905 1.60496 1.60496C1.21905 1.99088 1.00155 2.51385 1 3.05962V10.1212C1.00155 10.6669 1.21905 11.1899 1.60496 11.5758C1.99088 11.9617 2.51385 12.1792 3.05962 12.1808H4.53077V15.1231L7.97768 12.2492C8.03061 12.205 8.09739 12.1808 8.16636 12.1808H14.2404C14.7862 12.1792 15.3091 11.9617 15.695 11.5758C16.081 11.1899 16.2984 10.6669 16.3 10.1212V3.05962C16.2984 2.51385 16.081 1.99088 15.695 1.60496C15.3091 1.21905 14.7862 1.00155 14.2404 1Z" stroke="#721EA6" stroke-width="1.5" stroke-linejoin="round"/>
</svg>
