<svg width="297" height="189" viewBox="0 0 297 189" fill="none" xmlns="http://www.w3.org/2000/svg">
<path d="M0 0H297V189H0V0Z" fill="#721EA6"/>
<path fill-rule="evenodd" clip-rule="evenodd" d="M257.231 34.2222H39.7692V154.778H257.231V34.2222ZM20 17V172H277V17H20Z" fill="white"/>
<path fill-rule="evenodd" clip-rule="evenodd" d="M117.962 88.231L71.0635 131.964L60.9194 121.086L107.818 77.3528L117.962 88.231Z" fill="white"/>
<path fill-rule="evenodd" clip-rule="evenodd" d="M246.962 88.231L200.064 131.964L189.919 121.086L236.818 77.3528L246.962 88.231Z" fill="white"/>
<path fill-rule="evenodd" clip-rule="evenodd" d="M91.1416 62L55 95L91.1416 128L102 118.085L76.7169 95L102 71.9146L91.1416 62Z" fill="white"/>
<path fill-rule="evenodd" clip-rule="evenodd" d="M220.142 62L184 95L220.142 128L231 118.085L205.717 95L231 71.9146L220.142 62Z" fill="white"/>
<ellipse cx="150" cy="103.5" rx="25" ry="31.5" fill="white"/>
<ellipse cx="150" cy="103.5" rx="12" ry="17.5" fill="#721EA6"/>
</svg>
