<svg width="66" height="12" viewBox="0 0 66 12" fill="none" xmlns="http://www.w3.org/2000/svg">
<g id="review_detail_comp_info_stars">
<path id="Star 1" d="M5.68458 1.42435C5.83646 0.968339 6.48147 0.968338 6.63334 1.42435L7.42586 3.80389C7.49388 4.00812 7.68498 4.1459 7.90024 4.1459H10.4381C10.9254 4.1459 11.1248 4.772 10.7272 5.05382L8.69549 6.4939C8.5159 6.62119 8.44069 6.85096 8.51025 7.05981L9.29128 9.40489C9.44398 9.86338 8.92202 10.2503 8.52776 9.97081L6.4481 8.49674C6.27489 8.37397 6.04304 8.37397 5.86983 8.49674L3.79016 9.97081C3.39591 10.2503 2.87394 9.86338 3.02664 9.40489L3.80768 7.05981C3.87723 6.85096 3.80202 6.62119 3.62243 6.4939L1.59073 5.05382C1.19312 4.772 1.39251 4.1459 1.87986 4.1459H4.41769C4.63295 4.1459 4.82405 4.00812 4.89207 3.80389L5.68458 1.42435Z" fill="#EFAA5A"/>
<path id="Star 2" d="M19.0098 1.42435C19.1617 0.968339 19.8067 0.968338 19.9585 1.42435L20.7511 3.80389C20.8191 4.00812 21.0102 4.1459 21.2254 4.1459H23.7633C24.2506 4.1459 24.45 4.772 24.0524 5.05382L22.0207 6.4939C21.8411 6.62119 21.7659 6.85096 21.8354 7.05981L22.6165 9.40489C22.7692 9.86338 22.2472 10.2503 21.853 9.97081L19.7733 8.49674C19.6001 8.37397 19.3682 8.37397 19.195 8.49674L17.1154 9.97081C16.7211 10.2503 16.1991 9.86338 16.3518 9.40489L17.1329 7.05981C17.2024 6.85096 17.1272 6.62119 16.9476 6.4939L14.9159 5.05382C14.5183 4.772 14.7177 4.1459 15.2051 4.1459H17.7429C17.9581 4.1459 18.1492 4.00812 18.2173 3.80389L19.0098 1.42435Z" fill="#EFAA5A"/>
<path id="Star 3" d="M32.335 1.42435C32.4868 0.968339 33.1319 0.968338 33.2837 1.42435L34.0762 3.80389C34.1443 4.00812 34.3354 4.1459 34.5506 4.1459H37.0885C37.5758 4.1459 37.7752 4.772 37.3776 5.05382L35.3459 6.4939C35.1663 6.62119 35.0911 6.85096 35.1606 7.05981L35.9417 9.40489C36.0944 9.86338 35.5724 10.2503 35.1782 9.97081L33.0985 8.49674C32.9253 8.37397 32.6934 8.37397 32.5202 8.49674L30.4406 9.97081C30.0463 10.2503 29.5243 9.86338 29.677 9.40489L30.4581 7.05981C30.5276 6.85096 30.4524 6.62119 30.2728 6.4939L28.2411 5.05382C27.8435 4.772 28.0429 4.1459 28.5303 4.1459H31.0681C31.2833 4.1459 31.4744 4.00812 31.5425 3.80389L32.335 1.42435Z" fill="#EFAA5A"/>
<path id="Star 4" d="M45.6611 1.42435C45.813 0.968339 46.458 0.968338 46.6099 1.42435L47.4024 3.80389C47.4704 4.00812 47.6615 4.1459 47.8768 4.1459H50.4146C50.902 4.1459 51.1014 4.772 50.7038 5.05382L48.6721 6.4939C48.4925 6.62119 48.4173 6.85096 48.4868 7.05981L49.2678 9.40489C49.4205 9.86338 48.8986 10.2503 48.5043 9.97081L46.4247 8.49674C46.2515 8.37397 46.0196 8.37397 45.8464 8.49674L43.7667 9.97081C43.3725 10.2503 42.8505 9.86338 43.0032 9.40489L43.7842 7.05981C43.8538 6.85096 43.7786 6.62119 43.599 6.4939L41.5673 5.05382C41.1697 4.772 41.3691 4.1459 41.8564 4.1459H44.3942C44.6095 4.1459 44.8006 4.00812 44.8686 3.80389L45.6611 1.42435Z" fill="#D9D9D9"/>
<path id="Star 5" d="M58.9863 1.42435C59.1382 0.968339 59.7832 0.968338 59.9351 1.42435L60.7276 3.80389C60.7956 4.00812 60.9867 4.1459 61.202 4.1459H63.7398C64.2272 4.1459 64.4266 4.772 64.029 5.05382L61.9973 6.4939C61.8177 6.62119 61.7424 6.85096 61.812 7.05981L62.593 9.40489C62.7457 9.86338 62.2238 10.2503 61.8295 9.97081L59.7499 8.49674C59.5766 8.37397 59.3448 8.37397 59.1716 8.49674L57.0919 9.97081C56.6977 10.2503 56.1757 9.86338 56.3284 9.40489L57.1094 7.05981C57.179 6.85096 57.1038 6.62119 56.9242 6.4939L54.8925 5.05382C54.4949 4.772 54.6943 4.1459 55.1816 4.1459H57.7194C57.9347 4.1459 58.1258 4.00812 58.1938 3.80389L58.9863 1.42435Z" fill="#D9D9D9"/>
</g>
</svg>
