<svg width="15" height="10" viewBox="0 0 15 10" fill="none" xmlns="http://www.w3.org/2000/svg">
<g id="review_detail_info_status_views">
<path id="Vector" d="M7.49546 1C9.75702 1 12.0769 2.30894 13.9032 4.92682C13.9553 5.00237 13.9839 5.09167 13.9853 5.18345C13.9867 5.27522 13.9609 5.36535 13.911 5.44245C12.5078 7.63901 10.219 9.35679 7.49546 9.35679C4.80156 9.35679 2.46572 7.63378 1.05987 5.43229C1.01122 5.35671 0.985352 5.26872 0.985352 5.17883C0.985352 5.08894 1.01122 5.00096 1.05987 4.92537C2.46891 2.74912 4.82187 1 7.49546 1Z" stroke="#626567" stroke-linecap="round" stroke-linejoin="round"/>
<path id="Vector_2" d="M7.48531 7.49959C6.20327 7.49959 5.16398 6.4603 5.16398 5.17826C5.16398 3.89623 6.20327 2.85693 7.48531 2.85693C8.76735 2.85693 9.80664 3.89623 9.80664 5.17826C9.80664 6.4603 8.76735 7.49959 7.48531 7.49959Z" stroke="#626567" stroke-miterlimit="10"/>
</g>
</svg>
