<svg width="20" height="24" viewBox="0 0 20 24" fill="none" xmlns="http://www.w3.org/2000/svg">
<g id="review_detail_header_function">
<g id="review_detail_header_function_url">
<path id="Vector" d="M13.9132 8.61487H16.0654C16.6362 8.61487 17.1836 8.83774 17.5872 9.23446C17.9908 9.63117 18.2176 10.1692 18.2176 10.7303V20.8842C18.2176 21.4453 17.9908 21.9833 17.5872 22.3801C17.1836 22.7768 16.6362 22.9996 16.0654 22.9996H3.1522C2.5814 22.9996 2.03398 22.7768 1.63036 22.3801C1.22675 21.9833 1 21.4453 1 20.8842V10.7303C1 10.1692 1.22675 9.63117 1.63036 9.23446C2.03398 8.83774 2.5814 8.61487 3.1522 8.61487H5.3044" stroke="#BDC0C4" stroke-width="2" stroke-linecap="round" stroke-linejoin="round"/>
<path id="Vector_2" d="M13.9135 5.23082L9.60908 1L5.30469 5.23082" stroke="#BDC0C4" stroke-width="2" stroke-linecap="round" stroke-linejoin="round"/>
<path id="Vector_3" d="M9.6084 15.4377V1" stroke="#BDC0C4" stroke-width="2" stroke-linecap="round" stroke-linejoin="round"/>
</g>
</g>
</svg>
