<svg width="20" height="21" viewBox="0 0 20 21" fill="none" xmlns="http://www.w3.org/2000/svg">
<g id="review-search-icon">
<path id="Vector" d="M8.3636 1C6.90721 1 5.48354 1.45586 4.2726 2.30993C3.06167 3.16401 2.11786 4.37793 1.56052 5.79821C1.00319 7.21848 0.857367 8.78131 1.14149 10.2891C1.42562 11.7968 2.12693 13.1818 3.15675 14.2688C4.18657 15.3558 5.49863 16.0961 6.92703 16.396C8.35543 16.6959 9.836 16.542 11.1815 15.9537C12.527 15.3654 13.6771 14.3692 14.4862 13.091C15.2953 11.8127 15.7272 10.31 15.7272 8.77268C15.7271 6.71128 14.9512 4.73434 13.5703 3.27671C12.1894 1.81908 10.3165 1.00013 8.3636 1Z" stroke="#626567" stroke-width="1.98188" stroke-miterlimit="10"/>
<path id="Vector_2" d="M13.8574 14.5717L19.0001 20" stroke="#626567" stroke-width="1.98188" stroke-miterlimit="10" stroke-linecap="round"/>
</g>
</svg>
