<svg width="65" height="12" viewBox="0 0 65 12" fill="none" xmlns="http://www.w3.org/2000/svg">
<g id="review_list_box_star_icons">
<path id="Star 1" d="M5.61894 1.43885C5.76999 0.981097 6.41751 0.981097 6.56856 1.43885L7.34859 3.80258C7.41621 4.00748 7.60764 4.1459 7.8234 4.1459H10.3309C10.8172 4.1459 11.0173 4.76965 10.6218 5.05256L8.60661 6.49418C8.42865 6.62149 8.35414 6.84973 8.42271 7.05753L9.1956 9.39963C9.34716 9.85892 8.82324 10.2444 8.42987 9.96297L6.38466 8.4999C6.21069 8.37545 5.97681 8.37545 5.80284 8.4999L3.75763 9.96297C3.36426 10.2444 2.84034 9.85892 2.9919 9.39963L3.76479 7.05753C3.83336 6.84973 3.75885 6.62149 3.58089 6.49418L1.56566 5.05256C1.17019 4.76965 1.37033 4.1459 1.85657 4.1459H4.3641C4.57986 4.1459 4.77129 4.00749 4.83891 3.80259L5.61894 1.43885Z" fill="#EFAA5A"/>
<path id="Star 2" d="M18.8221 1.43885C18.9731 0.981097 19.6206 0.981097 19.7717 1.43885L20.5517 3.80258C20.6193 4.00748 20.8108 4.1459 21.0265 4.1459H23.5341C24.0203 4.1459 24.2204 4.76965 23.825 5.05256L21.8097 6.49418C21.6318 6.62149 21.5573 6.84973 21.6258 7.05753L22.3987 9.39963C22.5503 9.85892 22.0264 10.2444 21.633 9.96297L19.5878 8.4999C19.4138 8.37545 19.1799 8.37545 19.006 8.4999L16.9608 9.96297C16.5674 10.2444 16.0435 9.85892 16.195 9.39963L16.9679 7.05753C17.0365 6.84973 16.962 6.62149 16.784 6.49418L14.7688 5.05256C14.3733 4.76965 14.5735 4.1459 15.0597 4.1459H17.5672C17.783 4.1459 17.9744 4.00749 18.042 3.80259L18.8221 1.43885Z" fill="#EFAA5A"/>
<path id="Star 3" d="M32.0252 1.43885C32.1762 0.981097 32.8238 0.981097 32.9748 1.43885L33.7548 3.80258C33.8225 4.00748 34.0139 4.1459 34.2297 4.1459H36.7372C37.2234 4.1459 37.4236 4.76965 37.0281 5.05256L35.0129 6.49418C34.8349 6.62149 34.7604 6.84973 34.829 7.05753L35.6018 9.39963C35.7534 9.85892 35.2295 10.2444 34.8361 9.96297L32.7909 8.4999C32.6169 8.37545 32.3831 8.37545 32.2091 8.4999L30.1639 9.96297C29.7705 10.2444 29.2466 9.85892 29.3982 9.39963L30.171 7.05753C30.2396 6.84973 30.1651 6.62149 29.9871 6.49418L27.9719 5.05256C27.5764 4.76965 27.7766 4.1459 28.2628 4.1459H30.7703C30.9861 4.1459 31.1775 4.00749 31.2452 3.80259L32.0252 1.43885Z" fill="#EFAA5A"/>
<path id="Star 4" d="M45.2283 1.43885C45.3794 0.981097 46.0269 0.981097 46.1779 1.43885L46.958 3.80258C47.0256 4.00748 47.217 4.1459 47.4328 4.1459H49.9403C50.4265 4.1459 50.6267 4.76965 50.2312 5.05256L48.216 6.49418C48.038 6.62149 47.9635 6.84973 48.0321 7.05753L48.805 9.39963C48.9565 9.85892 48.4326 10.2444 48.0392 9.96297L45.994 8.4999C45.8201 8.37545 45.5862 8.37545 45.4122 8.4999L43.367 9.96297C42.9736 10.2444 42.4497 9.85892 42.6013 9.39963L43.3742 7.05753C43.4427 6.84973 43.3682 6.62149 43.1903 6.49418L41.175 5.05256C40.7796 4.76965 40.9797 4.1459 41.4659 4.1459H43.9735C44.1892 4.1459 44.3807 4.00749 44.4483 3.80259L45.2283 1.43885Z" fill="#D9D9D9"/>
<path id="Star 5" d="M58.4314 1.43885C58.5825 0.981097 59.23 0.981097 59.3811 1.43885L60.1611 3.80258C60.2287 4.00748 60.4201 4.1459 60.6359 4.1459H63.1434C63.6297 4.1459 63.8298 4.76965 63.4343 5.05256L61.4191 6.49418C61.2411 6.62149 61.1666 6.84973 61.2352 7.05753L62.0081 9.39963C62.1597 9.85892 61.6357 10.2444 61.2424 9.96297L59.1972 8.4999C59.0232 8.37545 58.7893 8.37545 58.6153 8.4999L56.5701 9.96297C56.1768 10.2444 55.6528 9.85892 55.8044 9.39963L56.5773 7.05753C56.6459 6.84973 56.5714 6.62149 56.3934 6.49418L54.3782 5.05256C53.9827 4.76965 54.1828 4.1459 54.6691 4.1459H57.1766C57.3924 4.1459 57.5838 4.00749 57.6514 3.80259L58.4314 1.43885Z" fill="#D9D9D9"/>
</g>
</svg>
