<svg width="123" height="23" viewBox="0 0 123 23" fill="none" xmlns="http://www.w3.org/2000/svg">
<g id="Review-modal-star">
<path id="Star 4" d="M11.0252 1.43885C11.1762 0.981098 11.8238 0.981097 11.9748 1.43885L13.9686 7.48074C14.0362 7.68564 14.2277 7.82405 14.4434 7.82405H20.8788C21.3651 7.82405 21.5652 8.44781 21.1697 8.73071L15.9768 12.4456C15.7988 12.5729 15.7243 12.8011 15.7929 13.0089L17.7796 19.0292C17.9311 19.4885 17.4072 19.8739 17.0138 19.5925L11.7909 15.8562C11.6169 15.7318 11.3831 15.7318 11.2091 15.8562L5.98617 19.5925C5.5928 19.8739 5.06887 19.4885 5.22044 19.0292L7.20711 13.0089C7.27568 12.8011 7.20117 12.5729 7.0232 12.4456L1.83026 8.73071C1.43479 8.44781 1.63493 7.82405 2.12117 7.82405H8.55657C8.77233 7.82405 8.96376 7.68564 9.03138 7.48074L11.0252 1.43885Z" fill="#EFAA5A"/>
<path id="Star 5" d="M36.0252 1.43885C36.1762 0.981098 36.8238 0.981097 36.9748 1.43885L38.9686 7.48074C39.0362 7.68564 39.2277 7.82405 39.4434 7.82405H45.8788C46.3651 7.82405 46.5652 8.44781 46.1697 8.73071L40.9768 12.4456C40.7988 12.5729 40.7243 12.8011 40.7929 13.0089L42.7796 19.0292C42.9311 19.4885 42.4072 19.8739 42.0138 19.5925L36.7909 15.8562C36.6169 15.7318 36.3831 15.7318 36.2091 15.8562L30.9862 19.5925C30.5928 19.8739 30.0689 19.4885 30.2204 19.0292L32.2071 13.0089C32.2757 12.8011 32.2012 12.5729 32.0232 12.4456L26.8303 8.73071C26.4348 8.44781 26.6349 7.82405 27.1212 7.82405H33.5566C33.7723 7.82405 33.9638 7.68564 34.0314 7.48074L36.0252 1.43885Z" fill="#D2D2D2"/>
<path id="Star 6" d="M61.0252 1.43885C61.1762 0.981098 61.8238 0.981097 61.9748 1.43885L63.9686 7.48074C64.0362 7.68564 64.2277 7.82405 64.4434 7.82405H70.8788C71.3651 7.82405 71.5652 8.44781 71.1697 8.73071L65.9768 12.4456C65.7988 12.5729 65.7243 12.8011 65.7929 13.0089L67.7796 19.0292C67.9311 19.4885 67.4072 19.8739 67.0138 19.5925L61.7909 15.8562C61.6169 15.7318 61.3831 15.7318 61.2091 15.8562L55.9862 19.5925C55.5928 19.8739 55.0689 19.4885 55.2204 19.0292L57.2071 13.0089C57.2757 12.8011 57.2012 12.5729 57.0232 12.4456L51.8303 8.73071C51.4348 8.44781 51.6349 7.82405 52.1212 7.82405H58.5566C58.7723 7.82405 58.9638 7.68564 59.0314 7.48074L61.0252 1.43885Z" fill="#D2D2D2"/>
<path id="Star 7" d="M86.0252 1.43885C86.1762 0.981098 86.8238 0.981097 86.9748 1.43885L88.9686 7.48074C89.0362 7.68564 89.2277 7.82405 89.4434 7.82405H95.8788C96.3651 7.82405 96.5652 8.44781 96.1697 8.73071L90.9768 12.4456C90.7988 12.5729 90.7243 12.8011 90.7929 13.0089L92.7796 19.0292C92.9311 19.4885 92.4072 19.8739 92.0138 19.5925L86.7909 15.8562C86.6169 15.7318 86.3831 15.7318 86.2091 15.8562L80.9862 19.5925C80.5928 19.8739 80.0689 19.4885 80.2204 19.0292L82.2071 13.0089C82.2757 12.8011 82.2012 12.5729 82.0232 12.4456L76.8303 8.73071C76.4348 8.44781 76.6349 7.82405 77.1212 7.82405H83.5566C83.7723 7.82405 83.9638 7.68564 84.0314 7.48074L86.0252 1.43885Z" fill="#D2D2D2"/>
<path id="Star 8" d="M111.025 1.43885C111.176 0.981098 111.824 0.981097 111.975 1.43885L113.969 7.48074C114.036 7.68564 114.228 7.82405 114.443 7.82405H120.879C121.365 7.82405 121.565 8.44781 121.17 8.73071L115.977 12.4456C115.799 12.5729 115.724 12.8011 115.793 13.0089L117.78 19.0292C117.931 19.4885 117.407 19.8739 117.014 19.5925L111.791 15.8562C111.617 15.7318 111.383 15.7318 111.209 15.8562L105.986 19.5925C105.593 19.8739 105.069 19.4885 105.22 19.0292L107.207 13.0089C107.276 12.8011 107.201 12.5729 107.023 12.4456L101.83 8.73071C101.435 8.44781 101.635 7.82405 102.121 7.82405H108.557C108.772 7.82405 108.964 7.68564 109.031 7.48074L111.025 1.43885Z" fill="#D2D2D2"/>
</g>
</svg>
