<?xml version="1.0" standalone="no"?>
<!DOCTYPE svg PUBLIC "-//W3C//DTD SVG 20010904//EN"
 "http://www.w3.org/TR/2001/REC-SVG-20010904/DTD/svg10.dtd">
<svg version="1.0" xmlns="http://www.w3.org/2000/svg"
 width="225.000000pt" height="225.000000pt" viewBox="0 0 225.000000 225.000000"
 preserveAspectRatio="xMidYMid meet">

<g transform="translate(0.000000,225.000000) scale(0.100000,-0.100000)"
fill="#000000" stroke="none">
<path d="M927 2225 c-225 -43 -412 -141 -580 -304 -148 -144 -251 -319 -304
-518 -24 -89 -27 -115 -27 -278 0 -163 3 -189 27 -278 30 -114 105 -274 170
-366 62 -88 186 -211 274 -272 124 -86 268 -146 436 -183 l27 -6 0 390 0 390
-145 0 -145 0 0 165 0 165 144 0 144 0 4 188 c4 164 7 194 26 244 44 109 124
186 236 225 56 20 251 25 359 10 l57 -8 0 -138 0 -138 -108 -5 c-186 -8 -214
-39 -220 -245 l-4 -133 156 0 c183 0 166 24 133 -185 l-22 -140 -132 -3 -133
-3 0 -389 0 -390 28 6 c240 53 427 152 586 310 137 138 242 320 293 511 24 89
27 115 27 278 0 163 -3 189 -27 278 -30 114 -105 274 -170 366 -62 88 -186
211 -274 272 -101 69 -243 135 -360 166 -125 32 -354 41 -476 18z"/>
</g>
</svg>
