<svg width="12" height="9" viewBox="0 0 12 9" fill="none" xmlns="http://www.w3.org/2000/svg">
<path id="coments" d="M1.32698 2.49911L0.658726 2.15862L0.658726 2.15862L1.32698 2.49911ZM1.73895 8.06009L2.22052 8.63506L2.22052 8.63506L1.73895 8.06009ZM8.05586 7.00281L8.06979 7.75268L8.06982 7.75268L8.05586 7.00281ZM10.9995 4.05919L11.7494 4.07315L11.7494 4.07314L10.9995 4.05919ZM10.9995 3.80523L11.7494 3.79127L11.7494 3.79126L10.9995 3.80523ZM8.05586 0.861603L8.06982 0.111733L8.06979 0.111732L8.05586 0.861603ZM2.63803 1.18806L2.29754 0.51981L2.29754 0.51981L2.63803 1.18806ZM3.75 7.00369C3.75 6.58948 3.41421 6.25369 3 6.25369C2.58579 6.25369 2.25 6.58948 2.25 7.00369H3.75ZM2.99987 7.00397L2.51829 6.42901L2.99987 7.00397ZM1.00655 3.46193C0.59234 3.46193 0.256553 3.79772 0.256553 4.21193C0.256553 4.62614 0.59234 4.96193 1.00655 4.96193V3.46193ZM1.01311 4.20552L0.263501 4.1812L1.01311 4.20552ZM1.76271 4.22985C1.7874 3.46897 1.86025 3.10453 1.99524 2.8396L0.658726 2.15862C0.363561 2.73791 0.289194 3.38933 0.263501 4.1812L1.76271 4.22985ZM0.25 4.21848V5.66108H1.75V4.21848H0.25ZM0.25 5.66108V7.00333H1.75V5.66108H0.25ZM0.25 7.00333V7.00386H1.75V7.00333H0.25ZM0.25 7.00386V7.71511H1.75V7.00386H0.25ZM0.25 7.71511C0.25 8.73393 1.43949 9.28923 2.22052 8.63506L1.25737 7.48513C1.45263 7.32159 1.75 7.46041 1.75 7.71511H0.25ZM2.22052 8.63506L3.48145 7.57893L2.51829 6.42901L1.25737 7.48513L2.22052 8.63506ZM7.92888 6.25333H3.00036V7.75333H7.92888V6.25333ZM8.04193 6.25294C8.02272 6.2533 7.99828 6.25333 7.92888 6.25333V7.75333C7.99154 7.75333 8.03314 7.75336 8.06979 7.75268L8.04193 6.25294ZM10.2496 4.04522C10.2271 5.25506 9.25173 6.23041 8.04189 6.25294L8.06982 7.75268C10.0862 7.71513 11.7118 6.08954 11.7494 4.07315L10.2496 4.04522ZM10.25 3.93221C10.25 4.00162 10.25 4.02604 10.2496 4.04523L11.7494 4.07314C11.75 4.03648 11.75 3.99487 11.75 3.93221H10.25ZM10.2496 3.81919C10.25 3.83837 10.25 3.8628 10.25 3.93221H11.75C11.75 3.86955 11.75 3.82793 11.7494 3.79127L10.2496 3.81919ZM8.04189 1.61147C9.25173 1.634 10.2271 2.60936 10.2496 3.81919L11.7494 3.79126C11.7118 1.77487 10.0862 0.149284 8.06982 0.111733L8.04189 1.61147ZM7.92888 1.61108C7.99828 1.61108 8.02272 1.61112 8.04193 1.61147L8.06979 0.111732C8.03314 0.111051 7.99154 0.111084 7.92888 0.111084V1.61108ZM5.8 1.61108H7.92888V0.111084H5.8V1.61108ZM2.97852 1.85632C3.17604 1.75568 3.4368 1.68655 3.89068 1.64947C4.35331 1.61167 4.94755 1.61108 5.8 1.61108V0.111084C4.9723 0.111084 4.30641 0.110501 3.76853 0.154447C3.22189 0.199109 2.74175 0.293469 2.29754 0.51981L2.97852 1.85632ZM1.99523 2.83961C2.21095 2.41624 2.55516 2.07203 2.97852 1.85632L2.29754 0.51981C1.59193 0.879335 1.01825 1.45301 0.658726 2.15862L1.99523 2.83961ZM3.75 7.00369C3.75 7.41736 3.41473 7.75333 3.00036 7.75333V6.25333C2.5856 6.25333 2.25 6.58963 2.25 7.00369H3.75ZM3.48145 7.57893C3.65153 7.43647 3.75 7.2259 3.75 7.00369H2.25C2.25 6.7817 2.34837 6.57133 2.51829 6.42901L3.48145 7.57893ZM1.00655 3.46193C0.58872 3.46193 0.25 3.80065 0.25 4.21848H1.75C1.75 4.62908 1.41715 4.96193 1.00655 4.96193V3.46193ZM0.263501 4.1812C0.276208 3.78956 0.596051 3.46193 1.00655 3.46193V4.96193C1.42413 4.96193 1.74978 4.62856 1.76271 4.22985L0.263501 4.1812Z" fill="#626567"/>
</svg>
