<svg width="20" height="22" viewBox="0 0 20 22" fill="none" xmlns="http://www.w3.org/2000/svg">
<path id="Icon" d="M9.4 20.1999H3.39999C2.0745 20.1999 0.999991 19.1254 1 17.7999L1.00009 3.39999C1.0001 2.07451 2.07462 1 3.40009 1H14.2004C15.5258 1 16.6004 2.07452 16.6004 3.4V8.2M5.20038 5.8H12.4004M5.20038 9.4H12.4004M12.4004 14.154V17.0983C12.4004 18.5533 13.9518 19.8878 15.4067 19.8878C16.8617 19.8878 18.4004 18.5533 18.4004 17.0983V13.3791C18.4004 12.6088 17.9576 11.8272 16.9725 11.8272C15.9188 11.8272 15.4067 12.6088 15.4067 13.3791V16.9434M5.20038 13H8.80037" stroke="#721EA6" stroke-width="2" stroke-linecap="round" stroke-linejoin="round"/>
</svg>
