<svg width="22" height="16" viewBox="0 0 22 16" fill="none" xmlns="http://www.w3.org/2000/svg">
<g id="Group 295">
<path id="Vector" d="M11 10L10.5017 10.5606L11 11.0035L11.4983 10.5606L11 10ZM1 1V0.25C0.585786 0.25 0.25 0.585786 0.25 1L1 1ZM21 1H21.75C21.75 0.585786 21.4142 0.25 21 0.25V1ZM21 15V15.75C21.4142 15.75 21.75 15.4142 21.75 15H21ZM1 15H0.25C0.25 15.4142 0.585786 15.75 1 15.75L1 15ZM1.50173 2.56056L10.5017 10.5606L11.4983 9.43944L2.49827 1.43944L1.50173 2.56056ZM11.4983 10.5606L20.4983 2.56056L19.5017 1.43944L10.5017 9.43944L11.4983 10.5606ZM1 1.75H21V0.25H1V1.75ZM20.25 1V15H21.75V1H20.25ZM21 14.25H1V15.75H21V14.25ZM1.75 15V1H0.25V15H1.75Z" fill="#626567"/>
</g>
</svg>
