<svg width="13" height="9" viewBox="0 0 13 9" fill="none" xmlns="http://www.w3.org/2000/svg">
<g id="icon_view">
<path d="M11.7764 3.6926C11.8936 3.82067 11.9521 3.8847 11.9824 3.97747C12.0059 4.04939 12.0059 4.15512 11.9824 4.22704C11.9521 4.31981 11.8936 4.38384 11.7764 4.5119C10.979 5.38364 8.91747 7.34343 6.5 7.34343C4.08253 7.34343 2.02099 5.38364 1.22357 4.5119C1.10643 4.38384 1.04785 4.31981 1.01759 4.22704C0.994135 4.15512 0.994135 4.04939 1.01759 3.97747C1.04785 3.8847 1.10643 3.82067 1.22357 3.6926C2.02099 2.82087 4.08253 0.861084 6.5 0.861084C8.91747 0.861084 10.979 2.82087 11.7764 3.6926Z" stroke="#626567" stroke-width="1.5" stroke-linejoin="round"/>
<path d="M8 4.10225C8 4.74667 7.32843 5.26908 6.5 5.26908C5.67157 5.26908 5 4.74667 5 4.10225C5 3.45784 5.67157 2.93543 6.5 2.93543C7.32843 2.93543 8 3.45784 8 4.10225Z" stroke="#626567" stroke-width="1.5" stroke-linejoin="round"/>
</g>
</svg>
