<svg width="15" height="12" viewBox="0 0 15 12" fill="none" xmlns="http://www.w3.org/2000/svg">
<g id="qboard_form_fileupload_icon">
<g id="Vector">
<mask id="path-1-inside-1_357_1449" fill="white">
<path d="M12.2474 0.999949H7.37614C7.22818 1.00042 7.08341 0.956917 6.96022 0.874956L6.09152 0.29405C5.80386 0.10169 5.46544 -0.000673887 5.11939 3.33871e-06H2.74795C2.284 0.000499632 1.83919 0.185023 1.51113 0.513087C1.18307 0.84115 0.998543 1.28596 0.998047 1.74991V2.49987H13.9973C13.9973 1.53492 13.2124 0.999949 12.2474 0.999949Z"/>
</mask>
<path d="M12.2474 0.999949H7.37614C7.22818 1.00042 7.08341 0.956917 6.96022 0.874956L6.09152 0.29405C5.80386 0.10169 5.46544 -0.000673887 5.11939 3.33871e-06H2.74795C2.284 0.000499632 1.83919 0.185023 1.51113 0.513087C1.18307 0.84115 0.998543 1.28596 0.998047 1.74991V2.49987H13.9973C13.9973 1.53492 13.2124 0.999949 12.2474 0.999949Z" fill="#F5EFF9"/>
<path d="M7.37614 0.999949V-5.62712e-05L7.37293 -4.60107e-05L7.37614 0.999949ZM6.96022 0.874956L6.40435 1.70623L6.40629 1.70752L6.96022 0.874956ZM6.09152 0.29405L6.64739 -0.537218L6.64739 -0.537219L6.09152 0.29405ZM5.11939 3.33871e-06V1.00001L5.12134 1L5.11939 3.33871e-06ZM2.74795 3.33871e-06V-0.999997L2.74688 -0.999996L2.74795 3.33871e-06ZM0.998047 1.74991L-0.00195312 1.74884V1.74991H0.998047ZM0.998047 2.49987H-0.00195312V3.49987H0.998047V2.49987ZM13.9973 2.49987V3.49987H14.9973V2.49987H13.9973ZM12.2474 -5.1141e-05H7.37614V1.99995H12.2474V-5.1141e-05ZM7.37293 -4.60107e-05C7.42317 -0.00020694 7.47233 0.0145653 7.51416 0.0423949L6.40629 1.70752C6.69449 1.89927 7.03318 2.00105 7.37934 1.99994L7.37293 -4.60107e-05ZM7.5161 0.0436882L6.64739 -0.537218L5.53565 1.12532L6.40435 1.70622L7.5161 0.0436882ZM6.64739 -0.537219C6.19466 -0.839959 5.66205 -1.00106 5.11743 -0.999995L5.12134 1C5.26882 0.999713 5.41305 1.04334 5.53565 1.12532L6.64739 -0.537219ZM5.11939 -0.999997H2.74795V1H5.11939V-0.999997ZM2.74688 -0.999996C2.01808 -0.999216 1.31936 -0.709358 0.804024 -0.19402L2.21824 1.22019C2.35903 1.0794 2.54992 1.00022 2.74902 1L2.74688 -0.999996ZM0.804024 -0.19402C0.288686 0.321317 -0.00117296 1.02004 -0.00195253 1.74884L1.99805 1.75098C1.99826 1.55187 2.07745 1.36098 2.21824 1.22019L0.804024 -0.19402ZM-0.00195312 1.74991V2.49987H1.99805V1.74991H-0.00195312ZM0.998047 3.49987H13.9973V1.49987H0.998047V3.49987ZM14.9973 2.49987C14.9973 1.71721 14.6659 1.05428 14.1102 0.608235C13.5782 0.181093 12.904 -5.1141e-05 12.2474 -5.1141e-05V1.99995C12.5558 1.99995 12.7566 2.08629 12.8582 2.16787C12.9363 2.23055 12.9973 2.31757 12.9973 2.49987H14.9973Z" fill="#626567" mask="url(#path-1-inside-1_357_1449)"/>
</g>
<path id="Vector_2" d="M1.00876 10.248L1.00907 10.2686C1.01405 10.5965 1.14772 10.9094 1.38124 11.1396C1.61469 11.3698 1.92921 11.4991 2.25704 11.4995C2.25717 11.4995 2.25729 11.4995 2.25742 11.4995H12.7401C12.7402 11.4995 12.7403 11.4995 12.7405 11.4995C13.0683 11.4991 13.3828 11.3698 13.6163 11.1396C13.8498 10.9094 13.9834 10.5965 13.9884 10.2686L13.9887 10.2479L13.9908 10.2272L14.4952 5.10379V5.09962L14.4968 5.0797C14.5078 4.94219 14.4903 4.80389 14.4452 4.67349C14.4002 4.5431 14.3287 4.42343 14.2351 4.32202C14.1416 4.22061 14.0281 4.13965 13.9018 4.08423C13.7755 4.02884 13.6392 4.00017 13.5013 4L1.49936 4L1.00876 10.248ZM1.00876 10.248L1.00675 10.2274M1.00876 10.248L1.00675 10.2274M1.00675 10.2274L0.504783 5.10391V5.09962M1.00675 10.2274L0.504783 5.09962M0.504783 5.09962L0.503188 5.0797M0.504783 5.09962L0.503188 5.0797M0.503188 5.0797C0.492178 4.94216 0.509756 4.80382 0.554816 4.67339M0.503188 5.0797L0.554816 4.67339M0.554816 4.67339C0.599876 4.54297 0.671442 4.42329 0.765012 4.32187M0.554816 4.67339L0.765012 4.32187M0.765012 4.32187C0.858582 4.22045 0.97213 4.1395 1.09851 4.08411M0.765012 4.32187L1.09851 4.08411M1.09851 4.08411C1.22481 4.02875 1.36118 4.00012 1.49908 4L1.09851 4.08411Z" fill="#F5EFF9" stroke="#626567"/>
</g>
</svg>
