<svg width="17" height="17" viewBox="0 0 17 17" fill="none" xmlns="http://www.w3.org/2000/svg">
<g id="resumeform_header_tel_icon">
<path id="Vector" d="M15.5318 12.7547C14.9592 12.1777 13.5724 11.3358 12.8995 10.9965C12.0233 10.5551 11.9512 10.519 11.2625 11.0307C10.8031 11.3722 10.4977 11.6772 9.96004 11.5626C9.42241 11.4479 8.25411 10.8014 7.23113 9.78164C6.20815 8.76191 5.52411 7.55971 5.40909 7.02388C5.29406 6.48805 5.60416 6.18624 5.94239 5.72578C6.41909 5.07672 6.38303 4.96855 5.97557 4.09232C5.65789 3.41082 4.7914 2.03698 4.2123 1.46726C3.59282 0.855344 3.59282 0.96352 3.19365 1.12939C2.86868 1.26612 2.55691 1.43232 2.26226 1.62592C1.68532 2.00922 1.36512 2.32762 1.1412 2.80611C0.917272 3.28461 0.816668 4.40639 1.97307 6.50716C3.12947 8.60794 3.94078 9.68212 5.62003 11.3567C7.29928 13.0312 8.59054 13.9316 10.4782 14.9903C12.8134 16.2982 13.7091 16.0432 14.189 15.8197C14.6689 15.5961 14.9888 15.2788 15.3728 14.7018C15.5669 14.4077 15.7335 14.0963 15.8704 13.7715C16.0366 13.3738 16.1448 13.3738 15.5318 12.7547Z" stroke="#8C8F91" stroke-width="2" stroke-miterlimit="10"/>
</g>
</svg>
