<svg width="16" height="8" viewBox="0 0 16 8" fill="none" xmlns="http://www.w3.org/2000/svg">
<g id="resumeform_link_box_icon">
<path id="Vector" d="M6.29053 7.34863H4.17432C3.33244 7.34863 2.52504 7.0142 1.92974 6.4189C1.33444 5.8236 1 5.0162 1 4.17432C1 3.33244 1.33444 2.52504 1.92974 1.92974C2.52504 1.33444 3.33244 1 4.17432 1H6.29053" stroke="#626567" stroke-linecap="round" stroke-linejoin="round"/>
<path id="Vector_2" d="M9.46491 1H11.5811C12.423 1 13.2304 1.33444 13.8257 1.92974C14.421 2.52504 14.7554 3.33244 14.7554 4.17432C14.7554 5.0162 14.421 5.8236 13.8257 6.4189C13.2304 7.0142 12.423 7.34863 11.5811 7.34863H9.46491" stroke="#626567" stroke-linecap="round" stroke-linejoin="round"/>
<path id="Vector_3" d="M4.81201 4.1748H11.0092" stroke="#626567" stroke-linecap="round" stroke-linejoin="round"/>
</g>
</svg>
