<svg width="76" height="24" viewBox="0 0 76 24" fill="none" xmlns="http://www.w3.org/2000/svg">
<rect width="75" height="24" rx="5" fill="#721EA6"/>
<path d="M31.56 8.95H34.31V9.8H31.56V8.95ZM31.56 11.02H34.31V11.87H31.56V11.02ZM29.96 8.21C31.31 8.21 32.34 9.13 32.34 10.41C32.34 11.69 31.31 12.61 29.96 12.61C28.6 12.61 27.58 11.69 27.58 10.41C27.58 9.13 28.6 8.21 29.96 8.21ZM29.96 9.1C29.17 9.1 28.58 9.61 28.58 10.41C28.58 11.2 29.17 11.72 29.96 11.72C30.75 11.72 31.34 11.2 31.34 10.41C31.34 9.61 30.75 9.1 29.96 9.1ZM33.98 7.69H35.03V13.07H33.98V7.69ZM31.98 13.28C33.88 13.28 35.06 13.93 35.06 15.05C35.06 16.17 33.88 16.82 31.98 16.82C30.08 16.82 28.9 16.17 28.9 15.05C28.9 13.93 30.08 13.28 31.98 13.28ZM31.98 14.09C30.68 14.09 29.93 14.43 29.93 15.05C29.93 15.66 30.68 16 31.98 16C33.28 16 34.03 15.66 34.03 15.05C34.03 14.43 33.28 14.09 31.98 14.09ZM36.4092 12.29H44.6892V13.13H36.4092V12.29ZM40.1092 12.82H41.1492V14.84H40.1092V12.82ZM37.4492 8.1H43.6192V11.39H37.4492V8.1ZM42.5892 8.93H38.4792V10.56H42.5892V8.93ZM37.4192 15.8H43.7692V16.65H37.4192V15.8ZM37.4192 14.01H38.4592V16.09H37.4192V14.01ZM51.6945 10.2H54.1945V11.05H51.6945V10.2ZM53.9045 7.7H54.9545V14.45H53.9045V7.7ZM49.0045 15.8H55.1645V16.65H49.0045V15.8ZM49.0045 13.79H50.0545V16.26H49.0045V13.79ZM47.7945 8.3H48.8345V9.81H50.9845V8.3H52.0145V12.95H47.7945V8.3ZM48.8345 10.62V12.11H50.9845V10.62H48.8345ZM60.4438 8.98H63.1938V9.83H60.4438V8.98ZM60.4438 11H63.1938V11.85H60.4438V11ZM57.7538 13.55H63.9138V16.83H62.8638V14.39H57.7538V13.55ZM62.8638 7.69H63.9138V13.09H62.8638V7.69ZM58.8438 8.18C60.1938 8.18 61.2238 9.11 61.2238 10.41C61.2238 11.72 60.1938 12.64 58.8438 12.64C57.4838 12.64 56.4638 11.72 56.4638 10.41C56.4638 9.11 57.4838 8.18 58.8438 8.18ZM58.8438 9.08C58.0538 9.08 57.4638 9.61 57.4638 10.41C57.4638 11.22 58.0538 11.75 58.8438 11.75C59.6338 11.75 60.2238 11.22 60.2238 10.41C60.2238 9.61 59.6338 9.08 58.8438 9.08Z" fill="white"/>
<g clip-path="url(#clip0_1012_1524)">
<path d="M15.5075 13.7909L14.0258 12.3267L14.0433 12.3092C15.0583 11.1775 15.7816 9.87669 16.2075 8.50002H17.9166V7.33335H13.8333V6.16669H12.6666V7.33335H8.58331V8.49419H15.0991C14.7083 9.62002 14.09 10.6875 13.25 11.6209C12.7075 11.02 12.2583 10.3609 11.9025 9.66669H10.7358C11.1616 10.6175 11.745 11.5159 12.4741 12.3267L9.50498 15.255L10.3333 16.0834L13.25 13.1667L15.0641 14.9809L15.5075 13.7909ZM18.7916 10.8334H17.625L15 17.8334H16.1666L16.82 16.0834H19.5908L20.25 17.8334H21.4166L18.7916 10.8334ZM17.2633 14.9167L18.2083 12.3909L19.1533 14.9167H17.2633Z" fill="white"/>
</g>
<defs>
<clipPath id="clip0_1012_1524">
<rect width="14" height="14" fill="white" transform="translate(8 5)"/>
</clipPath>
</defs>
</svg>
