<svg width="27" height="27" viewBox="0 0 27 27" fill="none" xmlns="http://www.w3.org/2000/svg">
<path d="M16.1356 27C17.0635 27 17.7208 26.201 18.1976 24.9637L26.6391 2.91265C26.8711 2.31981 27 1.79141 27 1.35322C27 0.515513 26.4845 0 25.6468 0C25.2086 0 24.6802 0.128878 24.0874 0.360859L1.92029 8.85394C0.837709 9.26635 0 9.92363 0 10.8644C0 12.0501 0.902148 12.4496 2.13938 12.8234L9.09881 14.937C9.92363 15.1947 10.3876 15.169 10.9418 14.6535L25.0797 1.44344C25.2473 1.28878 25.4406 1.31456 25.5695 1.43055C25.6983 1.55943 25.7112 1.75274 25.5566 1.92029L12.3981 16.1098C11.8955 16.6382 11.8568 17.0764 12.1017 17.9399L14.1508 24.7446C14.5375 26.0463 14.937 27 16.1356 27Z" fill="white"/>
</svg>
