<svg width="328" height="17" viewBox="0 0 328 17" fill="none" xmlns="http://www.w3.org/2000/svg">
<rect x="0.5" y="8" width="90" height="1" fill="#95969A"/>
<path d="M111.972 6.38H115.14V7.4H111.972V6.38ZM111.972 9.824H115.14V10.844H111.972V9.824ZM110.004 4.832C111.624 4.832 112.776 6.332 112.776 8.696C112.776 11.06 111.624 12.572 110.004 12.572C108.384 12.572 107.232 11.06 107.232 8.696C107.232 6.332 108.384 4.832 110.004 4.832ZM110.004 5.972C109.068 5.972 108.42 6.992 108.42 8.696C108.42 10.412 109.068 11.444 110.004 11.444C110.952 11.444 111.588 10.412 111.588 8.696C111.588 6.992 110.952 5.972 110.004 5.972ZM114.9 4.016H116.148V15.008H114.9V4.016ZM125.639 4.028H126.899V14.996H125.639V4.028ZM122.423 5.192H123.659C123.659 8.444 122.363 11.204 118.595 13.04L117.935 12.032C121.091 10.508 122.423 8.336 122.423 5.408V5.192ZM118.475 5.192H122.987V6.2H118.475V5.192ZM136.042 4.028H137.302V14.996H136.042V4.028ZM136.906 8.444H138.838V9.488H136.906V8.444ZM130.738 5.18H131.902C131.902 8 131.47 10.46 129.514 12.608L128.518 11.888C130.27 10.016 130.738 7.94 130.738 5.324V5.18ZM128.926 5.18H131.218V6.212H128.926V5.18ZM133.738 5.18H134.914C134.914 8.072 134.59 10.928 132.61 13.316L131.614 12.62C133.39 10.496 133.738 8.048 133.738 5.312V5.18ZM132.262 5.18H134.254V6.212H132.262V5.18ZM142.233 5.672H143.241V7.208C143.241 9.62 142.005 12.008 140.121 12.908L139.401 11.912C141.093 11.132 142.233 9.08 142.233 7.208V5.672ZM142.497 5.672H143.493V7.208C143.493 9.02 144.621 10.916 146.337 11.636L145.641 12.632C143.733 11.78 142.497 9.56 142.497 7.208V5.672ZM139.797 5.12H145.929V6.164H139.797V5.12ZM147.213 4.028H148.473V14.996H147.213V4.028ZM160.48 4.028H161.74V9.776H160.48V4.028ZM154.024 13.916H154.72C156.352 13.916 157.264 13.892 158.392 13.676L158.524 14.624C157.348 14.84 156.412 14.864 154.72 14.864H154.024V13.916ZM154.012 10.256H157.708V12.932H155.236V14.444H154.024V12.044H156.484V11.204H154.012V10.256ZM158.152 10.256H161.74V14.936H160.492V11.264H158.152V10.256ZM155.776 4.496C157.432 4.496 158.656 5.528 158.656 6.992C158.656 8.456 157.432 9.476 155.776 9.476C154.132 9.476 152.908 8.456 152.908 6.992C152.908 5.528 154.132 4.496 155.776 4.496ZM155.776 5.528C154.828 5.528 154.12 6.104 154.12 6.992C154.12 7.868 154.828 8.456 155.776 8.456C156.736 8.456 157.432 7.868 157.432 6.992C157.432 6.104 156.736 5.528 155.776 5.528ZM168.447 4.664C170.739 4.664 172.479 5.888 172.479 7.748C172.479 9.62 170.739 10.844 168.447 10.844C166.167 10.844 164.415 9.62 164.415 7.748C164.415 5.888 166.167 4.664 168.447 4.664ZM168.447 5.684C166.827 5.684 165.639 6.488 165.639 7.748C165.639 8.996 166.827 9.812 168.447 9.812C170.079 9.812 171.267 8.996 171.267 7.748C171.267 6.488 170.079 5.684 168.447 5.684ZM163.503 12.56H173.439V13.604H163.503V12.56ZM180.146 5.24H182.486V6.26H180.146V5.24ZM180.146 7.352H182.486V8.36H180.146V7.352ZM182.126 4.028H183.386V10.4H182.126V4.028ZM176.93 4.424H177.962V5.492C177.962 7.688 176.894 9.56 174.962 10.316L174.266 9.32C176.006 8.684 176.93 7.148 176.93 5.492V4.424ZM177.158 4.424H178.178V5.492C178.178 7.04 179.09 8.54 180.746 9.164L180.05 10.16C178.202 9.416 177.158 7.592 177.158 5.492V4.424ZM177.002 10.808H177.962V11.192C177.962 12.74 177.146 14.24 175.502 14.852L174.878 13.928C176.282 13.424 177.002 12.272 177.002 11.192V10.808ZM177.302 10.808H178.226V11.192C178.226 12.296 178.814 13.472 180.158 14.024L179.63 14.96C177.974 14.324 177.302 12.74 177.302 11.192V10.808ZM181.034 10.808H181.946V11.192C181.946 12.596 181.262 14.276 179.63 14.96L179.102 14.024C180.434 13.412 181.034 12.164 181.034 11.192V10.808ZM181.31 10.808H182.27V11.192C182.27 12.344 182.966 13.46 184.406 13.928L183.77 14.852C182.114 14.264 181.31 12.824 181.31 11.192V10.808ZM186.301 10.604H187.549V11.72H192.481V10.604H193.729V14.864H186.301V10.604ZM187.549 12.668V13.868H192.481V12.668H187.549ZM185.089 8.936H195.001V9.932H185.089V8.936ZM189.409 4.148H190.489V4.568C190.489 6.476 188.581 7.94 186.073 8.288L185.617 7.304C187.813 7.028 189.409 5.828 189.409 4.568V4.148ZM189.613 4.148H190.693V4.568C190.693 5.816 192.301 7.028 194.473 7.304L194.017 8.288C191.521 7.94 189.613 6.452 189.613 4.568V4.148ZM203.7 4.028H204.948V14.996H203.7V4.028ZM196.536 5.084H197.784V11.888H196.536V5.084ZM196.536 11.144H197.472C199.104 11.144 200.856 11.024 202.692 10.652L202.836 11.708C200.94 12.104 199.176 12.224 197.472 12.224H196.536V11.144ZM213.935 4.016H215.195V15.008H213.935V4.016ZM214.907 8.228H216.899V9.272H214.907V8.228ZM207.143 11.276H208.031C209.975 11.276 211.415 11.204 213.035 10.904L213.167 11.96C211.487 12.26 210.023 12.32 208.031 12.32H207.143V11.276ZM207.143 5.06H212.243V6.08H208.391V11.756H207.143V5.06ZM218.734 14.168C218.206 14.168 217.81 13.76 217.81 13.196C217.81 12.62 218.206 12.224 218.734 12.224C219.25 12.224 219.658 12.62 219.658 13.196C219.658 13.76 219.25 14.168 218.734 14.168Z" fill="#95969A"/>
<rect x="237.5" y="8" width="90" height="1" fill="#95969A"/>
</svg>
