<svg width="11" height="11" viewBox="0 0 11 11" fill="none" xmlns="http://www.w3.org/2000/svg">
<path d="M6.99213 0.799976C6.51431 0.284092 5.84693 0 5.1103 0C4.36975 0 3.70015 0.282373 3.22454 0.795065C2.74377 1.3134 2.50952 2.01786 2.56452 2.77855C2.67354 4.2793 3.81556 5.50014 5.1103 5.50014C6.40504 5.50014 7.54509 4.27955 7.65583 2.77904C7.71157 2.02523 7.47585 1.32224 6.99213 0.799976Z" fill="white"/>
<path d="M9.42895 10.9986H0.785875C0.672745 11.0001 0.560709 10.9763 0.45792 10.929C0.355131 10.8817 0.264172 10.8121 0.191663 10.7253C0.0320609 10.5345 -0.0322711 10.274 0.015364 10.0105C0.222601 8.8609 0.869359 7.89518 1.8859 7.21724C2.78901 6.61542 3.93299 6.28418 5.10741 6.28418C6.28184 6.28418 7.42582 6.61566 8.32892 7.21724C9.34547 7.89493 9.99222 8.86065 10.1995 10.0103C10.2471 10.2737 10.1828 10.5343 10.0232 10.7251C9.95068 10.8119 9.85973 10.8816 9.75694 10.9289C9.65415 10.9762 9.5421 11 9.42895 10.9986Z" fill="white"/>
</svg>
