<svg width="19" height="24" viewBox="0 0 19 24" fill="none" xmlns="http://www.w3.org/2000/svg">
<g id="notice_detail_header_function_url">
<path id="Vector" d="M13.9132 8.61523H16.0654C16.6362 8.61523 17.1836 8.83811 17.5872 9.23482C17.9908 9.63154 18.2176 10.1696 18.2176 10.7306V20.8846C18.2176 21.4456 17.9908 21.9837 17.5872 22.3804C17.1836 22.7771 16.6362 23 16.0654 23H3.1522C2.5814 23 2.03398 22.7771 1.63036 22.3804C1.22675 21.9837 1 21.4456 1 20.8846V10.7306C1 10.1696 1.22675 9.63154 1.63036 9.23482C2.03398 8.83811 2.5814 8.61523 3.1522 8.61523H5.3044" stroke="#BDC0C4" stroke-width="1.5" stroke-linecap="round" stroke-linejoin="round"/>
<path id="Vector_2" d="M13.9135 5.23082L9.60908 1L5.30469 5.23082" stroke="#BDC0C4" stroke-width="1.5" stroke-linecap="round" stroke-linejoin="round"/>
<path id="Vector_3" d="M9.60938 15.4377V1" stroke="#BDC0C4" stroke-width="1.5" stroke-linecap="round" stroke-linejoin="round"/>
</g>
</svg>
