<svg width="11" height="10" viewBox="0 0 11 10" fill="none" xmlns="http://www.w3.org/2000/svg">
<g id="board_detail_header_btn_like_icon">
<path id="Vector" d="M10.0833 3.73558L6.50833 3.49566L7.03542 1.70826C7.17292 1.17644 7.01754 0.871144 6.52048 0.73659L5.7255 0.539656C5.70669 0.535306 5.68677 0.536293 5.66864 0.542476C5.65051 0.548659 5.63511 0.559715 5.62467 0.574045L2.66842 4.61948C2.65202 4.64275 2.62907 4.66196 2.60175 4.67529C2.57443 4.68863 2.54366 4.69564 2.51235 4.69565H0V8.85385H2.69523C2.81346 8.85383 2.93093 8.87044 3.0431 8.90304L4.79165 9.41146C4.97859 9.46586 5.17437 9.49361 5.37144 9.49364H9.449C9.88442 9.49364 10.1709 9.22333 10.2564 8.85065L11 6.00641V4.53531C11 4.09426 10.5875 3.77556 10.0833 3.73558Z" fill="#626567"/>
</g>
</svg>
