<svg width="12" height="12" viewBox="0 0 12 12" fill="none" xmlns="http://www.w3.org/2000/svg">
<path id="notice-comments-icon" d="M1 5.61272L0.25 5.61269L1 5.61272ZM1.79357 10.9796L2.36619 11.464L2.36619 11.464L1.79357 10.9796ZM9.02708 9.37143L8.77031 8.66676H8.77031L9.02708 9.37143ZM10.8187 7.5798L10.114 7.32303L10.8187 7.5798ZM10.8187 2.85622L10.114 3.11299V3.11299L10.8187 2.85622ZM9.02708 1.06459L9.28385 0.359916V0.359916L9.02708 1.06459ZM2.63803 1.21028L2.29754 0.542026V0.542026L2.63803 1.21028ZM1.32698 2.52133L1.99524 2.86182L1.99524 2.86182L1.32698 2.52133ZM3.75 9.55319C3.75 9.13898 3.41422 8.80319 3 8.80319C2.58579 8.80319 2.25 9.13898 2.25 9.55319H3.75ZM2.99989 9.55349L3.57251 10.0379L2.99989 9.55349ZM1.75 5.6833C1.75 5.65957 1.75 5.63609 1.75 5.61275L0.25 5.61269C0.249999 5.63607 0.25 5.65965 0.25 5.6833H1.75ZM0.25 5.6833V9.55273H1.75V5.6833H0.25ZM0.25 9.55273V9.55336H1.75V9.55273H0.25ZM0.25 9.55336V10.689H1.75V9.55336H0.25ZM0.25 10.689C0.25 11.807 1.64418 12.3175 2.36619 11.464L1.22096 10.4952C1.40146 10.2818 1.75 10.4095 1.75 10.689H0.25ZM2.36619 11.464L3.57251 10.0379L2.42728 9.06913L1.22096 10.4952L2.36619 11.464ZM6.66529 8.80273H3.00047V10.3027H6.66529V8.80273ZM8.77031 8.66676C8.42851 8.7913 7.97343 8.80273 6.66529 8.80273V10.3027C7.84282 10.3027 8.63057 10.3142 9.28385 10.0761L8.77031 8.66676ZM10.114 7.32303C9.88653 7.94739 9.39467 8.43925 8.77031 8.66676L9.28385 10.0761C10.3244 9.69694 11.1442 8.87717 11.5234 7.83657L10.114 7.32303ZM10.25 5.21801C10.25 6.52615 10.2386 6.98123 10.114 7.32303L11.5234 7.83657C11.7614 7.1833 11.75 6.39555 11.75 5.21801H10.25ZM10.114 3.11299C10.2386 3.45479 10.25 3.90988 10.25 5.21801H11.75C11.75 4.04048 11.7614 3.25273 11.5234 2.59945L10.114 3.11299ZM8.77031 1.76927C9.39467 1.99677 9.88653 2.48863 10.114 3.11299L11.5234 2.59945C11.1442 1.55886 10.3244 0.739088 9.28385 0.359916L8.77031 1.76927ZM6.66529 1.6333C7.97343 1.6333 8.42851 1.64473 8.77031 1.76927L9.28385 0.359916C8.63057 0.121876 7.84282 0.133301 6.66529 0.133301V1.6333ZM5.8 1.6333H6.66529V0.133301H5.8V1.6333ZM2.97852 1.87854C3.17604 1.7779 3.43681 1.70877 3.89068 1.67168C4.35331 1.63388 4.94755 1.6333 5.8 1.6333V0.133301C4.9723 0.133301 4.30642 0.132717 3.76853 0.176664C3.2219 0.221326 2.74176 0.315686 2.29754 0.542026L2.97852 1.87854ZM1.99524 2.86182C2.21095 2.43846 2.55516 2.09425 2.97852 1.87854L2.29754 0.542026C1.59193 0.901551 1.01825 1.47523 0.658728 2.18084L1.99524 2.86182ZM1.75 5.61275C1.75003 4.78485 1.75178 4.20611 1.78995 3.75507C1.82739 3.31278 1.89605 3.05648 1.99524 2.86182L0.658728 2.18084C0.43554 2.61886 0.340745 3.09164 0.295299 3.62856C0.250593 4.15674 0.250032 4.80736 0.25 5.61269L1.75 5.61275ZM3.75 9.55319C3.75 9.96735 3.41422 10.3027 3.00047 10.3027V8.80273C2.5862 8.80273 2.25 9.13852 2.25 9.55319H3.75ZM3.57251 10.0379C3.68711 9.90238 3.75 9.73066 3.75 9.55319H2.25C2.25 9.37594 2.31282 9.20444 2.42728 9.06913L3.57251 10.0379Z" fill="#626567"/>
</svg>
