<svg width="13" height="9" viewBox="0 0 13 9" fill="none" xmlns="http://www.w3.org/2000/svg">
<g id="notice-list-readcount-icon">
<path d="M11.7764 3.71482C11.8936 3.84289 11.9521 3.90692 11.9824 3.99969C12.0059 4.07161 12.0059 4.17734 11.9824 4.24926C11.9521 4.34202 11.8936 4.40606 11.7764 4.53412C10.979 5.40585 8.91747 7.36564 6.5 7.36564C4.08253 7.36564 2.02099 5.40585 1.22357 4.53412C1.10643 4.40606 1.04785 4.34202 1.01759 4.24926C0.994135 4.17734 0.994135 4.07161 1.01759 3.99969C1.04785 3.90692 1.10643 3.84289 1.22357 3.71482C2.02099 2.84309 4.08253 0.883301 6.5 0.883301C8.91747 0.883301 10.979 2.84309 11.7764 3.71482Z" stroke="#626567" stroke-width="1.5" stroke-linejoin="round"/>
<path d="M8 4.12447C8 4.76889 7.32843 5.29129 6.5 5.29129C5.67157 5.29129 5 4.76889 5 4.12447C5 3.48005 5.67157 2.95765 6.5 2.95765C7.32843 2.95765 8 3.48005 8 4.12447Z" stroke="#626567" stroke-width="1.5" stroke-linejoin="round"/>
</g>
</svg>
