<svg width="26" height="20" viewBox="0 0 26 20" fill="none" xmlns="http://www.w3.org/2000/svg">
<g id="notice-write-photo-icons">
<path id="Vector" d="M18.2596 4.07728L16.741 1.69083C16.4209 1.31975 15.9822 1.08826 15.4905 1.08826H10.242C9.75019 1.08826 9.31148 1.31975 8.99144 1.69083L7.47279 4.07728C7.15274 4.44893 6.74028 4.71957 6.24852 4.71957H2.82557C2.3414 4.71957 1.87706 4.91087 1.5347 5.25137C1.19234 5.59187 1 6.05369 1 6.53523V17.4292C1 17.9107 1.19234 18.3725 1.5347 18.713C1.87706 19.0535 2.3414 19.2448 2.82557 19.2448H22.9069C23.391 19.2448 23.8554 19.0535 24.1977 18.713C24.5401 18.3725 24.7324 17.9107 24.7324 17.4292V6.53523C24.7324 6.05369 24.5401 5.59187 24.1977 5.25137C23.8554 4.91087 23.391 4.71957 22.9069 4.71957H19.541C19.0475 4.71957 18.5797 4.44893 18.2596 4.07728Z" stroke="black" stroke-linecap="round" stroke-linejoin="round"/>
<path id="Vector_2" d="M12.8667 15.6135C15.3872 15.6135 17.4306 13.5813 17.4306 11.0744C17.4306 8.56746 15.3872 6.53522 12.8667 6.53522C10.3461 6.53522 8.30273 8.56746 8.30273 11.0744C8.30273 13.5813 10.3461 15.6135 12.8667 15.6135Z" stroke="black" stroke-miterlimit="10"/>
<path id="Vector_3" d="M5.33598 4.60608V3.35782H3.9668V4.60608" stroke="black" stroke-linecap="round" stroke-linejoin="round"/>
</g>
</svg>
