<?xml version="1.0" standalone="no"?>
<!DOCTYPE svg PUBLIC "-//W3C//DTD SVG 20010904//EN"
 "http://www.w3.org/TR/2001/REC-SVG-20010904/DTD/svg10.dtd">
<svg version="1.0" xmlns="http://www.w3.org/2000/svg"
 width="202.000000pt" height="250.000000pt" viewBox="0 0 202.000000 250.000000"
 preserveAspectRatio="xMidYMid meet">

<g transform="translate(0.000000,250.000000) scale(0.100000,-0.100000)"
fill="#000000" stroke="none">
<path d="M1090 2225 l-475 -173 -3 -45 -3 -45 438 144 c241 79 439 144 441
144 1 0 2 -150 2 -334 l0 -333 103 -5 c79 -4 124 -13 190 -36 l87 -30 0 322
-1 321 -139 118 c-77 64 -145 119 -152 121 -7 2 -227 -74 -488 -169z"/>
<path d="M508 1832 l-478 -167 0 -717 0 -718 60 0 60 0 2 682 3 682 365 117
365 117 3 -321 2 -320 31 48 c65 102 192 215 307 274 l42 21 0 160 0 159 -127
76 c-69 41 -134 75 -142 74 -9 0 -231 -75 -493 -167z"/>
<path d="M518 1547 l-218 -72 0 -102 c0 -57 3 -103 6 -103 5 0 399 105 434
115 12 4 15 26 15 120 0 71 -4 115 -10 114 -5 -1 -108 -33 -227 -72z"/>
<path d="M1349 1336 c-116 -32 -242 -130 -302 -233 -101 -175 -88 -399 34
-560 l40 -53 -76 -144 -75 -143 46 -7 c26 -3 61 -6 78 -6 25 0 41 -11 87 -62
l56 -62 73 140 73 140 99 -1 100 -1 70 -137 c39 -75 73 -137 77 -137 3 0 28
26 54 59 l48 58 76 6 c41 3 77 7 79 9 2 2 -30 69 -70 148 l-74 144 30 35 c80
91 124 247 107 381 -25 209 -180 383 -380 429 -60 14 -194 12 -250 -3z m391
-326 c11 -11 20 -28 20 -37 0 -10 -75 -93 -167 -185 -130 -130 -174 -168 -193
-168 -20 0 -51 25 -128 104 -56 57 -102 111 -102 121 0 27 30 55 58 55 17 0
48 -22 101 -75 l76 -74 141 139 c77 77 148 140 157 140 9 0 26 -9 37 -20z"/>
<path d="M670 1214 c-30 -8 -126 -33 -212 -56 l-158 -41 0 -99 c0 -99 0 -100
23 -95 12 3 108 22 212 42 105 20 197 38 205 41 12 3 15 25 15 114 0 124 6
118 -85 94z"/>
<path d="M525 810 l-220 -36 -3 -97 c-1 -53 0 -97 4 -97 21 0 439 42 442 45 1
1 1 51 0 111 l-3 109 -220 -35z"/>
<path d="M485 454 c-88 -6 -166 -13 -172 -13 -10 -1 -13 -28 -13 -101 l0 -100
228 0 227 0 0 115 0 115 -55 -1 c-30 -1 -127 -8 -215 -15z"/>
</g>
</svg>
