<svg width="19" height="24" viewBox="0 0 19 24" fill="none" xmlns="http://www.w3.org/2000/svg">
<g id="fboard_url_icon">
<path id="Vector" d="M13.9132 8.61475H16.0654C16.6362 8.61475 17.1836 8.83762 17.5872 9.23433C17.9908 9.63105 18.2176 10.1691 18.2176 10.7302V20.8841C18.2176 21.4452 17.9908 21.9832 17.5872 22.3799C17.1836 22.7767 16.6362 22.9995 16.0654 22.9995H3.1522C2.5814 22.9995 2.03398 22.7767 1.63036 22.3799C1.22675 21.9832 1 21.4452 1 20.8841V10.7302C1 10.1691 1.22675 9.63105 1.63036 9.23433C2.03398 8.83762 2.5814 8.61475 3.1522 8.61475H5.3044" stroke="#BDC0C4" stroke-width="1.5" stroke-linecap="round" stroke-linejoin="round"/>
<path id="Vector_2" d="M13.9135 5.23082L9.60908 1L5.30469 5.23082" stroke="#BDC0C4" stroke-width="1.5" stroke-linecap="round" stroke-linejoin="round"/>
<path id="Vector_3" d="M9.60938 15.4377V1" stroke="#BDC0C4" stroke-width="1.5" stroke-linecap="round" stroke-linejoin="round"/>
</g>
</svg>
