<svg width="18" height="12" viewBox="0 0 18 12" fill="none" xmlns="http://www.w3.org/2000/svg">
<g id="hboard_form_fileupload_icon">
<g id="Vector">
<mask id="path-1-inside-1_414_1641" fill="white">
<path d="M14.7366 0.999949H9.09104C8.91957 1.00042 8.75179 0.956917 8.60902 0.874956L7.60225 0.29405C7.26887 0.10169 6.87666 -0.000673887 6.4756 3.33871e-06H3.72725C3.18956 0.000499632 2.67406 0.185023 2.29385 0.513087C1.91365 0.84115 1.69979 1.28596 1.69922 1.74991V2.49987H16.7646C16.7646 1.53492 15.8549 0.999949 14.7366 0.999949Z"/>
</mask>
<path d="M14.7366 0.999949H9.09104C8.91957 1.00042 8.75179 0.956917 8.60902 0.874956L7.60225 0.29405C7.26887 0.10169 6.87666 -0.000673887 6.4756 3.33871e-06H3.72725C3.18956 0.000499632 2.67406 0.185023 2.29385 0.513087C1.91365 0.84115 1.69979 1.28596 1.69922 1.74991V2.49987H16.7646C16.7646 1.53492 15.8549 0.999949 14.7366 0.999949Z" fill="#F5EFF9"/>
<path d="M9.09104 0.999949V-5.49606e-05L9.08828 -4.73214e-05L9.09104 0.999949ZM8.60902 0.874956L8.10925 1.74112L8.11115 1.7422L8.60902 0.874956ZM7.60225 0.29405L8.10202 -0.572108L8.10202 -0.57211L7.60225 0.29405ZM6.4756 3.33871e-06V1L6.47729 1L6.4756 3.33871e-06ZM3.72725 3.33871e-06V-0.999997L3.72633 -0.999996L3.72725 3.33871e-06ZM1.69922 1.74991L0.699219 1.74867V1.74991H1.69922ZM1.69922 2.49987H0.699219V3.49987H1.69922V2.49987ZM16.7646 2.49987V3.49987H17.7646V2.49987H16.7646ZM14.7366 -5.1141e-05H9.09104V1.99995H14.7366V-5.1141e-05ZM9.08828 -4.73214e-05C9.08769 -4.56985e-05 9.08818 -0.000161678 9.09028 0.000380794C9.09233 0.000913815 9.0981 0.0026556 9.1069 0.00770889L8.11115 1.7422C8.41272 1.91533 8.75432 2.00088 9.09381 1.99995L9.08828 -4.73214e-05ZM9.10879 0.0087977L8.10202 -0.572108L7.10248 1.16021L8.10925 1.74111L9.10879 0.0087977ZM8.10202 -0.57211C7.60964 -0.85621 7.04328 -1.00096 6.47392 -0.999995L6.47729 1C6.71003 0.999609 6.92809 1.05959 7.10248 1.16021L8.10202 -0.57211ZM6.4756 -0.999997H3.72725V1H6.4756V-0.999997ZM3.72633 -0.999996C2.96746 -0.999296 2.21554 -0.740147 1.64057 -0.244028L2.94713 1.2702C3.13257 1.11019 3.41167 1.0003 3.72818 1L3.72633 -0.999996ZM1.64057 -0.244028C1.06101 0.256047 0.700187 0.968381 0.69922 1.74867L2.69922 1.75115C2.6994 1.60353 2.76628 1.42625 2.94713 1.2702L1.64057 -0.244028ZM0.699219 1.74991V2.49987H2.69922V1.74991H0.699219ZM1.69922 3.49987H16.7646V1.49987H1.69922V3.49987ZM17.7646 2.49987C17.7646 1.65609 17.3477 0.987394 16.7394 0.565999C16.1617 0.165878 15.4395 -5.1141e-05 14.7366 -5.1141e-05V1.99995C15.152 1.99995 15.4438 2.1015 15.6006 2.21011C15.7266 2.29743 15.7646 2.3787 15.7646 2.49987H17.7646Z" fill="#626567" mask="url(#path-1-inside-1_414_1641)"/>
</g>
<path id="Vector_2" d="M1.63294 10.2674L1.63252 10.2435L1.62983 10.2198L1.04851 5.10005V5.09646L1.04637 5.07341C1.03468 4.94739 1.05304 4.81933 1.10244 4.69598C1.15199 4.57223 1.23296 4.45298 1.34521 4.348C1.45763 4.24287 1.59828 4.15512 1.76033 4.09384C1.92231 4.03257 2.09955 4.00012 2.28031 4C2.28039 4 2.28047 4 2.28055 4L16.1902 4C16.371 4.00018 16.5482 4.03268 16.7101 4.09397C16.8721 4.15529 17.0126 4.24303 17.125 4.34816C17.2372 4.45312 17.3181 4.57235 17.3676 4.69607C17.417 4.8194 17.4354 4.94743 17.4237 5.07341L17.4215 5.09646V5.09991L16.8373 10.2195L16.8346 10.2434L16.8342 10.2674C16.8289 10.57 16.6861 10.8767 16.4063 11.1148C16.1243 11.3547 15.7309 11.499 15.3086 11.4995C15.3085 11.4995 15.3083 11.4995 15.3081 11.4995H3.15901C3.15886 11.4995 3.15872 11.4995 3.15858 11.4995C2.73624 11.499 2.34284 11.3547 2.0609 11.1148L1.73689 11.4957L2.0609 11.1148C1.78102 10.8767 1.63827 10.57 1.63294 10.2674Z" fill="#F5EFF9" stroke="#626567"/>
</g>
</svg>
