<svg width="14" height="15" viewBox="0 0 14 15" fill="none" xmlns="http://www.w3.org/2000/svg">
<g id="board_write_icon">
<path id="Vector" d="M1.85096 14.6619H0V12.7235L10.4374 1.76562L12.3143 3.73156L1.85096 14.6619Z" fill="white"/>
<path id="Vector_2" d="M12.7121 3.31297L10.8369 1.34916L11.9024 0.268565C12.067 0.0951629 12.3194 3.11672e-06 12.5533 3.11672e-06C12.6684 -0.000311915 12.7825 0.0232582 12.8889 0.069353C12.9953 0.115448 13.0919 0.183154 13.1732 0.268565L13.7453 0.86772C13.8265 0.952742 13.8908 1.05375 13.9346 1.16493C13.9784 1.2761 14.0007 1.39525 14.0004 1.51551C14.0004 1.76222 13.9092 2.02479 13.7439 2.19784L12.7121 3.31297Z" fill="white"/>
</g>
</svg>
