<svg width="21" height="21" viewBox="0 0 21 21" fill="none" xmlns="http://www.w3.org/2000/svg">
<g id="board_pages_reset">
<path id="Vector" d="M17.3803 4.99224L16.3975 3.82451C15.5642 2.93061 14.5615 2.21923 13.4504 1.73366C12.3394 1.24808 11.1432 0.99847 9.93471 1.00001C5.00201 1.00001 1 5.08729 1 10.1251C1 15.1629 5.00201 19.2502 9.93471 19.2502C11.7826 19.2501 13.5851 18.6651 15.094 17.5756C16.603 16.4862 17.7443 14.9459 18.3608 13.1668" stroke="#626567" stroke-width="2" stroke-miterlimit="10" stroke-linecap="round"/>
<path id="Vector_2" d="M20.3584 2.58884V7.84432C20.3584 8.046 20.28 8.23942 20.1403 8.38203C20.0007 8.52463 19.8113 8.60475 19.6139 8.60475H14.468C13.8044 8.60475 13.4722 7.78587 13.9412 7.3068L19.0875 2.05084C19.5566 1.57082 20.3584 1.91111 20.3584 2.58884Z" fill="black"/>
</g>
</svg>
