<svg width="18" height="14" viewBox="0 0 18 14" fill="none" xmlns="http://www.w3.org/2000/svg">
<g id="board_preview_views_icon">
<path d="M16.6748 6.24166C16.8452 6.47873 16.9304 6.59727 16.9744 6.769C17.0085 6.90213 17.0085 7.09786 16.9744 7.231C16.9304 7.40273 16.8452 7.52127 16.6748 7.75834C15.5149 9.37207 12.5163 13 9 13C5.48369 13 2.48508 9.37207 1.3252 7.75834C1.1548 7.52127 1.0696 7.40273 1.02559 7.231C0.99147 7.09786 0.99147 6.90213 1.02559 6.769C1.0696 6.59727 1.1548 6.47873 1.3252 6.24166C2.48508 4.62793 5.48369 1 9 1C12.5163 1 15.5149 4.62793 16.6748 6.24166Z" stroke="#626567" stroke-width="1.5" stroke-linejoin="round"/>
<path d="M11.1818 7C11.1818 8.19293 10.205 9.16 9 9.16C7.79502 9.16 6.81818 8.19293 6.81818 7C6.81818 5.80706 7.79502 4.84 9 4.84C10.205 4.84 11.1818 5.80706 11.1818 7Z" stroke="#626567" stroke-width="1.5" stroke-linejoin="round"/>
</g>
</svg>
