<svg width="11" height="10" viewBox="0 0 11 10" fill="none" xmlns="http://www.w3.org/2000/svg">
<g id="board_detail_header_btn_dislike_icon">
<path id="Vector" d="M0.916667 6.29505L4.49281 6.53496L3.96573 8.32236C3.8264 8.85418 3.98177 9.15948 4.47883 9.29443L5.27381 9.49137C5.29263 9.49572 5.31254 9.49473 5.33067 9.48855C5.3488 9.48236 5.3642 9.47131 5.37465 9.45698L8.3309 5.41154C8.34729 5.38828 8.37024 5.36906 8.39756 5.35573C8.42488 5.3424 8.45566 5.33539 8.48696 5.33537H11V1.17677H8.30477C8.18654 1.17679 8.06907 1.16019 7.9569 1.12759L6.20835 0.61916C6.02141 0.56476 5.82563 0.537014 5.62856 0.536987H1.551C1.11558 0.536987 0.829125 0.807296 0.743646 1.17997L0 4.02421V5.49531C0 5.93637 0.4125 6.25506 0.916667 6.29505Z" fill="#626567"/>
<path id="Vector_2" d="M8.17331 5.4787L8.15039 5.51869C8.18354 5.4574 8.23777 5.40666 8.30554 5.37354C8.25244 5.39884 8.20709 5.43491 8.17331 5.4787Z" fill="#626567"/>
</g>
</svg>
