<svg width="20" height="14" viewBox="0 0 20 14" fill="none" xmlns="http://www.w3.org/2000/svg">
<g id="board_function_sort_by">
<g id="board_function_sort_by_icon">
<path id="Vector" d="M5.5 1.7168H19" stroke="black" stroke-width="2" stroke-linecap="round" stroke-linejoin="round"/>
<path id="Vector_2" d="M5.5 6.73633H19" stroke="black" stroke-width="2" stroke-linecap="round" stroke-linejoin="round"/>
<path id="Vector_3" d="M5.5 11.7549H19" stroke="black" stroke-width="2" stroke-linecap="round" stroke-linejoin="round"/>
<path id="Vector_4" d="M1.75 2.43397C2.16421 2.43397 2.5 2.11296 2.5 1.71698C2.5 1.321 2.16421 1 1.75 1C1.33579 1 1 1.321 1 1.71698C1 2.11296 1.33579 2.43397 1.75 2.43397Z" stroke="black" stroke-width="2" stroke-linecap="round" stroke-linejoin="round"/>
<path id="Vector_5" d="M1.75 7.45252C2.16421 7.45252 2.5 7.13152 2.5 6.73554C2.5 6.33956 2.16421 6.01855 1.75 6.01855C1.33579 6.01855 1 6.33956 1 6.73554C1 7.13152 1.33579 7.45252 1.75 7.45252Z" stroke="black" stroke-width="2" stroke-linecap="round" stroke-linejoin="round"/>
<path id="Vector_6" d="M1.75 12.4721C2.16421 12.4721 2.5 12.151 2.5 11.7551C2.5 11.3591 2.16421 11.0381 1.75 11.0381C1.33579 11.0381 1 11.3591 1 11.7551C1 12.151 1.33579 12.4721 1.75 12.4721Z" stroke="black" stroke-width="2" stroke-linecap="round" stroke-linejoin="round"/>
</g>
</g>
</svg>
