<svg width="28" height="28" viewBox="0 0 28 28" fill="none" xmlns="http://www.w3.org/2000/svg">
<g id="Bookmark">
<path id="Rectangle 1" d="M5 10.2552C5 6.83509 5 5.12501 5.98851 4.06251C6.97703 3 8.56802 3 11.75 3H16.25C19.432 3 21.023 3 22.0115 4.06251C23 5.12501 23 6.83509 23 10.2552V18.5112C23 21.7559 23 23.3782 22.0502 23.8744C21.1003 24.3706 19.9135 23.3683 17.5399 21.3637L16.7802 20.7221C15.4455 19.595 14.7782 19.0314 14 19.0314C13.2218 19.0314 12.5545 19.595 11.2198 20.7222L10.4601 21.3637C8.08649 23.3683 6.89966 24.3706 5.94983 23.8744C5 23.3782 5 21.7559 5 18.5112V10.2552Z" stroke="#6E727F" stroke-width="2"/>
</g>
</svg>
