<svg width="28" height="28" viewBox="0 0 28 28" fill="none" xmlns="http://www.w3.org/2000/svg">
<g id="close_ring">
<path id="Ellipse 86" d="M14 24.5C12.6211 24.5 11.2557 24.2284 9.98182 23.7007C8.7079 23.1731 7.55039 22.3996 6.57538 21.4246C5.60036 20.4496 4.82694 19.2921 4.29926 18.0182C3.77159 16.7443 3.5 15.3789 3.5 14C3.5 12.6211 3.77159 11.2557 4.29927 9.98182C4.82694 8.7079 5.60036 7.55039 6.57538 6.57538C7.5504 5.60036 8.70791 4.82694 9.98183 4.29926C11.2557 3.77159 12.6211 3.5 14 3.5C15.3789 3.5 16.7443 3.77159 18.0182 4.29927C19.2921 4.82694 20.4496 5.60037 21.4246 6.57538C22.3996 7.5504 23.1731 8.70791 23.7007 9.98183C24.2284 11.2557 24.5 12.6211 24.5 14C24.5 15.3789 24.2284 16.7443 23.7007 18.0182C23.1731 19.2921 22.3996 20.4496 21.4246 21.4246C20.4496 22.3996 19.2921 23.1731 18.0182 23.7007C16.7443 24.2284 15.3789 24.5 14 24.5L14 24.5Z" stroke="#6E727F" stroke-width="2" stroke-linecap="round"/>
<path id="Vector 112" d="M10.5 10.5L17.5 17.5" stroke="#6E727F" stroke-width="2" stroke-linecap="round"/>
<path id="Vector 113" d="M17.5 10.5L10.5 17.5" stroke="#6E727F" stroke-width="2" stroke-linecap="round"/>
</g>
</svg>
