<svg width="28" height="28" viewBox="0 0 28 28" fill="none" xmlns="http://www.w3.org/2000/svg">
<g id="File_dock">
<path id="Rectangle 1" d="M15.3668 3.5H10.5C8.30012 3.5 7.20018 3.5 6.51676 4.18342C5.83334 4.86684 5.83334 5.96678 5.83334 8.16667V19.8333C5.83334 22.0332 5.83334 23.1332 6.51676 23.8166C7.20018 24.5 8.30012 24.5 10.5 24.5H17.5C19.6999 24.5 20.7998 24.5 21.4833 23.8166C22.1667 23.1332 22.1667 22.0332 22.1667 19.8333V10.2998C22.1667 9.82296 22.1667 9.58452 22.0779 9.37012C21.9891 9.15572 21.8205 8.98712 21.4833 8.64992L17.0168 4.18342C16.6796 3.84622 16.511 3.67761 16.2966 3.58881C16.0822 3.5 15.8437 3.5 15.3668 3.5Z" stroke="#6E727F" stroke-width="2"/>
<path id="Vector 55" d="M10.5 15.1667L17.5 15.1667" stroke="#6E727F" stroke-width="2" stroke-linecap="round"/>
<path id="Vector 58" d="M10.5 19.8333L15.1667 19.8333" stroke="#6E727F" stroke-width="2" stroke-linecap="round"/>
<path id="Rectangle 2" d="M15.1667 3.5V8.16667C15.1667 9.26661 15.1667 9.81658 15.5084 10.1583C15.8501 10.5 16.4 10.5 17.5 10.5H22.1667" stroke="#6E727F" stroke-width="2"/>
</g>
</svg>
