<svg width="92" height="22" viewBox="0 0 92 22" fill="none" xmlns="http://www.w3.org/2000/svg">
<g id="footer_icons">
<g id="footer_icons_github">
<path id="Vector" d="M11 0C4.9225 0 0 4.92525 0 11C0 15.8611 3.1515 19.9833 7.52125 21.4362C8.07125 21.5398 8.27292 21.1997 8.27292 20.9073C8.27292 20.6461 8.26375 19.954 8.25917 19.0373C5.19933 19.701 4.554 17.5615 4.554 17.5615C4.0535 16.2919 3.33025 15.9528 3.33025 15.9528C2.33383 15.2708 3.40725 15.2845 3.40725 15.2845C4.51183 15.3615 5.09208 16.4175 5.09208 16.4175C6.07292 18.0996 7.667 17.6137 8.29583 17.3323C8.39483 16.621 8.67808 16.1361 8.9925 15.8611C6.54958 15.5861 3.982 14.6401 3.982 10.4253C3.982 9.22442 4.40825 8.24358 5.11408 7.47358C4.99033 7.19583 4.61908 6.0775 5.21033 4.56225C5.21033 4.56225 6.13158 4.26708 8.23533 5.68975C9.11533 5.445 10.0503 5.324 10.9853 5.3185C11.9203 5.324 12.8553 5.445 13.7353 5.68975C15.8253 4.26708 16.7466 4.56225 16.7466 4.56225C17.3378 6.0775 16.9666 7.19583 16.8566 7.47358C17.5578 8.24358 17.9841 9.22442 17.9841 10.4253C17.9841 14.6511 15.4128 15.5815 12.9653 15.8519C13.3503 16.1819 13.7078 16.8566 13.7078 17.8869C13.7078 19.3591 13.6941 20.5416 13.6941 20.8991C13.6941 21.1878 13.8866 21.5316 14.4503 21.4216C18.8513 19.9787 22 15.8538 22 11C22 4.92525 17.0748 0 11 0Z" fill="#626567"/>
</g>
<g id="footer_icons_youtube">
<path id="Vector_2" d="M59.4572 4.93381C59.3065 4.36922 59.0191 3.85482 58.6227 3.44034C58.2263 3.02586 57.7343 2.72531 57.1944 2.56774C55.1678 2.00002 47.0116 2.00002 47.0116 2.00002C47.0116 2.00002 38.876 1.98868 36.8288 2.56774C36.2888 2.72531 35.7969 3.02586 35.4005 3.44034C35.0041 3.85482 34.7166 4.36922 34.5659 4.93381C34.1818 7.10329 33.9924 9.30557 34.0002 11.5119C33.9939 13.7099 34.1833 15.9038 34.5659 18.0651C34.7166 18.6297 35.0041 19.1441 35.4005 19.5585C35.7969 19.973 36.2888 20.2736 36.8288 20.4311C38.8532 21 47.0116 21 47.0116 21C47.0116 21 55.1461 21 57.1944 20.4311C57.7343 20.2736 58.2263 19.973 58.6227 19.5585C59.0191 19.1441 59.3065 18.6297 59.4572 18.0651C59.8319 15.903 60.0133 13.7091 59.9991 11.5119C60.0148 9.30635 59.8334 7.10408 59.4572 4.93381ZM44.4084 15.5811V7.4302L51.197 11.5119L44.4084 15.5811Z" fill="#626567"/>
</g>
<g id="footer_icons_google">
<path id="Vector_3" d="M82.2041 9.74575V13.2449H87.9915C87.7577 14.7457 86.2432 17.6446 82.2041 17.6446C78.7219 17.6446 75.8784 14.7628 75.8784 11.2041C75.8784 7.64541 78.7228 4.76361 82.2041 4.76361C84.1854 4.76361 85.5128 5.60459 86.273 6.33588L89.04 3.66752C87.2628 2.0085 84.9583 1 82.2041 1C76.5621 1 72 5.56207 72 11.2041C72 16.8461 76.5621 21.4082 82.2041 21.4082C88.0935 21.4082 92 17.2679 92 11.4371C92 10.767 91.9277 10.2551 91.8393 9.74575H82.2041Z" fill="#626567"/>
</g>
</g>
</svg>
