<svg width="13" height="13" viewBox="0 0 13 13" fill="none" xmlns="http://www.w3.org/2000/svg">
<g id="icon_calendar_outline_01">
<path id="Vector" d="M11.1951 1.73438H2.73359C2.03261 1.73438 1.46436 2.30263 1.46436 3.00361V10.619C1.46436 11.32 2.03261 11.8882 2.73359 11.8882H11.1951C11.8961 11.8882 12.4644 11.32 12.4644 10.619V3.00361C12.4644 2.30263 11.8961 1.73438 11.1951 1.73438Z" stroke="#626567" stroke-linejoin="round"/>
<path id="Vector_2" d="M8.02194 6.38855C8.37243 6.38855 8.65656 6.10443 8.65656 5.75394C8.65656 5.40345 8.37243 5.11932 8.02194 5.11932C7.67146 5.11932 7.38733 5.40345 7.38733 5.75394C7.38733 6.10443 7.67146 6.38855 8.02194 6.38855Z" fill="#626567"/>
<path id="Vector_3" d="M10.1373 6.38855C10.4878 6.38855 10.7719 6.10443 10.7719 5.75394C10.7719 5.40345 10.4878 5.11932 10.1373 5.11932C9.78678 5.11932 9.50266 5.40345 9.50266 5.75394C9.50266 6.10443 9.78678 6.38855 10.1373 6.38855Z" fill="#626567"/>
<path id="Vector_4" d="M8.02182 8.50361C8.37231 8.50361 8.65644 8.21948 8.65644 7.86899C8.65644 7.5185 8.37231 7.23438 8.02182 7.23438C7.67133 7.23438 7.38721 7.5185 7.38721 7.86899C7.38721 8.21948 7.67133 8.50361 8.02182 8.50361Z" fill="#626567"/>
<path id="Vector_5" d="M10.1371 8.50361C10.4875 8.50361 10.7717 8.21948 10.7717 7.86899C10.7717 7.5185 10.4875 7.23438 10.1371 7.23438C9.78657 7.23438 9.50244 7.5185 9.50244 7.86899C9.50244 8.21948 9.78657 8.50361 10.1371 8.50361Z" fill="#626567"/>
<path id="Vector_6" d="M3.79135 8.50361C4.14184 8.50361 4.42597 8.21948 4.42597 7.86899C4.42597 7.5185 4.14184 7.23438 3.79135 7.23438C3.44087 7.23438 3.15674 7.5185 3.15674 7.86899C3.15674 8.21948 3.44087 8.50361 3.79135 8.50361Z" fill="#626567"/>
<path id="Vector_7" d="M5.90659 8.50361C6.25708 8.50361 6.5412 8.21948 6.5412 7.86899C6.5412 7.5185 6.25708 7.23438 5.90659 7.23438C5.5561 7.23438 5.27197 7.5185 5.27197 7.86899C5.27197 8.21948 5.5561 8.50361 5.90659 8.50361Z" fill="#626567"/>
<path id="Vector_8" d="M3.79135 10.6188C4.14184 10.6188 4.42597 10.3347 4.42597 9.98422C4.42597 9.63374 4.14184 9.34961 3.79135 9.34961C3.44087 9.34961 3.15674 9.63374 3.15674 9.98422C3.15674 10.3347 3.44087 10.6188 3.79135 10.6188Z" fill="#626567"/>
<path id="Vector_9" d="M5.90659 10.6188C6.25708 10.6188 6.5412 10.3347 6.5412 9.98422C6.5412 9.63374 6.25708 9.34961 5.90659 9.34961C5.5561 9.34961 5.27197 9.63374 5.27197 9.98422C5.27197 10.3347 5.5561 10.6188 5.90659 10.6188Z" fill="#626567"/>
<path id="Vector_10" d="M8.02182 10.6188C8.37231 10.6188 8.65644 10.3347 8.65644 9.98422C8.65644 9.63374 8.37231 9.34961 8.02182 9.34961C7.67133 9.34961 7.38721 9.63374 7.38721 9.98422C7.38721 10.3347 7.67133 10.6188 8.02182 10.6188Z" fill="#626567"/>
<g id="icon_calendar_outline_01_group_01">
<path id="Vector_11" d="M3.57968 0.888672V1.73483" stroke="#626567" stroke-linecap="round" stroke-linejoin="round"/>
<path id="Vector_12" d="M10.349 0.888672V1.73483" stroke="#626567" stroke-linecap="round" stroke-linejoin="round"/>
<path id="Vector_13" d="M12.4644 3.84961H1.46436" stroke="#626567" stroke-linejoin="round"/>
</g>
</g>
</svg>
