<svg width="13" height="13" viewBox="0 0 13 13" fill="none" xmlns="http://www.w3.org/2000/svg">
<path d="M6.35734 1.24808C6.40224 1.10988 6.59776 1.10988 6.64266 1.24807L7.85629 4.98323C7.9433 5.25105 8.19287 5.43237 8.47447 5.43237H12.4018C12.5472 5.43237 12.6076 5.61832 12.49 5.70372L9.3127 8.01218C9.08489 8.1777 8.98956 8.47109 9.07658 8.7389L10.2902 12.4741C10.3351 12.6123 10.1769 12.7272 10.0594 12.6418L6.88206 10.3333C6.65424 10.1678 6.34576 10.1678 6.11794 10.3333L2.94062 12.6418C2.82307 12.7272 2.66489 12.6123 2.7098 12.4741L3.92342 8.7389C4.01044 8.47109 3.91511 8.1777 3.6873 8.01218L0.509982 5.70373C0.392424 5.61831 0.452841 5.43237 0.598149 5.43237H4.52553C4.80712 5.43237 5.0567 5.25105 5.14371 4.98323L6.35734 1.24808Z" fill="#721EA6" stroke="#626567" stroke-width="0.5"/>
</svg>
