<svg width="20" height="14" viewBox="0 0 20 14" fill="none" xmlns="http://www.w3.org/2000/svg">
<g id="notice-list-icon">
<g id="Group">
<path id="Vector" d="M5.5 1.71704H19" stroke="black" stroke-width="2" stroke-linecap="round" stroke-linejoin="round"/>
<path id="Vector_2" d="M5.5 6.73584H19" stroke="black" stroke-width="2" stroke-linecap="round" stroke-linejoin="round"/>
<path id="Vector_3" d="M5.5 11.7549H19" stroke="black" stroke-width="2" stroke-linecap="round" stroke-linejoin="round"/>
<path id="Vector_4" d="M1.75 2.43397C2.16421 2.43397 2.5 2.11296 2.5 1.71698C2.5 1.321 2.16421 1 1.75 1C1.33579 1 1 1.321 1 1.71698C1 2.11296 1.33579 2.43397 1.75 2.43397Z" stroke="black" stroke-width="2" stroke-linecap="round" stroke-linejoin="round"/>
<path id="Vector_5" d="M1.75 7.45277C2.16421 7.45277 2.5 7.13176 2.5 6.73578C2.5 6.3398 2.16421 6.0188 1.75 6.0188C1.33579 6.0188 1 6.3398 1 6.73578C1 7.13176 1.33579 7.45277 1.75 7.45277Z" stroke="black" stroke-width="2" stroke-linecap="round" stroke-linejoin="round"/>
<path id="Vector_6" d="M1.75 12.4718C2.16421 12.4718 2.5 12.1508 2.5 11.7548C2.5 11.3588 2.16421 11.0378 1.75 11.0378C1.33579 11.0378 1 11.3588 1 11.7548C1 12.1508 1.33579 12.4718 1.75 12.4718Z" stroke="black" stroke-width="2" stroke-linecap="round" stroke-linejoin="round"/>
</g>
</g>
</svg>
