<svg width="21" height="21" viewBox="0 0 21 21" fill="none" xmlns="http://www.w3.org/2000/svg">
<g id="notice-list-_pages_reset">
<path id="Vector" d="M17.3803 4.99224L16.3975 3.82451C15.5642 2.93061 14.5615 2.21923 13.4504 1.73366C12.3394 1.24808 11.1432 0.99847 9.93471 1.00001C5.00201 1.00001 1 5.08729 1 10.1251C1 15.1629 5.00201 19.2502 9.93471 19.2502C11.7826 19.2501 13.5851 18.6651 15.094 17.5756C16.603 16.4862 17.7443 14.9459 18.3608 13.1668" stroke="#626567" stroke-width="2" stroke-miterlimit="10" stroke-linecap="round"/>
<path id="Vector_2" d="M20.3594 2.58835V7.84384C20.3594 8.04551 20.2809 8.23893 20.1413 8.38154C20.0017 8.52415 19.8123 8.60426 19.6148 8.60426H14.469C13.8054 8.60426 13.4731 7.78538 13.9422 7.30631L19.0885 2.05035C19.5576 1.57033 20.3594 1.91062 20.3594 2.58835Z" fill="black"/>
</g>
</svg>
