<svg width="16" height="15" viewBox="0 0 16 15" fill="none" xmlns="http://www.w3.org/2000/svg">
<g id="notice_function_search_icon">
<path id="Vector" d="M15.7548 13.4944L12.1277 10.0939C13.0009 9.00407 13.4723 7.67749 13.4707 6.3144C13.4707 2.83266 10.4492 0 6.73536 0C3.02151 0 0 2.83266 0 6.3144C0 9.79614 3.02151 12.6288 6.73536 12.6288C8.18932 12.6303 9.60434 12.1883 10.7669 11.3697L14.394 14.7701C14.5776 14.924 14.8171 15.0061 15.0632 14.9996C15.3094 14.9932 15.5436 14.8986 15.7177 14.7354C15.8919 14.5721 15.9927 14.3526 15.9996 14.1218C16.0065 13.891 15.9189 13.6665 15.7548 13.4944ZM1.92439 6.3144C1.92439 5.42235 2.20655 4.55033 2.73518 3.80862C3.26382 3.06691 4.01519 2.48881 4.89428 2.14744C5.77337 1.80607 6.7407 1.71675 7.67393 1.89078C8.60717 2.06481 9.4644 2.49437 10.1372 3.12515C10.8101 3.75592 11.2683 4.55958 11.4539 5.43449C11.6395 6.3094 11.5442 7.21626 11.1801 8.04041C10.816 8.86456 10.1994 9.56897 9.40819 10.0646C8.61703 10.5602 7.68688 10.8247 6.73536 10.8247C5.45988 10.8232 4.23708 10.3476 3.33518 9.50207C2.43328 8.65654 1.92592 7.51016 1.92439 6.3144Z" fill="#721EA6"/>
</g>
</svg>
