<svg width="18" height="12" viewBox="0 0 18 12" fill="none" xmlns="http://www.w3.org/2000/svg">
<g id="notice_form_fileupload_icon">
<path id="Vector" d="M16.1013 1.99987C16.0437 1.92548 15.9715 1.85878 15.8853 1.79908C15.6233 1.6176 15.2239 1.49995 14.7366 1.49995H9.09167H9.09104V0.999949L16.1013 1.99987ZM16.1013 1.99987H2.19922V1.75025C2.19968 1.44455 2.34005 1.13363 2.62049 0.891644C2.90326 0.647655 3.30047 0.500453 3.72747 0.500003L6.4756 0.500004L6.47645 0.500003C6.79334 0.499468 7.09848 0.580639 7.35236 0.727129L16.1013 1.99987Z" fill="#F5EFF9" stroke="#626567"/>
<path id="Vector_2" d="M1.63294 10.2673L1.63252 10.2434L1.62983 10.2197L1.04851 5.09993V5.09633L1.04637 5.07329C1.03468 4.94727 1.05304 4.81921 1.10244 4.69585C1.15199 4.5721 1.23296 4.45286 1.34521 4.34788C1.45763 4.24274 1.59828 4.155 1.76033 4.09371C1.92231 4.03245 2.09955 3.99999 2.28031 3.99988C2.28039 3.99988 2.28047 3.99988 2.28055 3.99988L16.1902 3.99988C16.371 4.00005 16.5482 4.03256 16.7101 4.09385C16.8721 4.15516 17.0126 4.24291 17.125 4.34804C17.2372 4.453 17.3181 4.57223 17.3676 4.69595C17.417 4.81928 17.4354 4.9473 17.4237 5.07329L17.4215 5.09633V5.09979L16.8373 10.2194L16.8346 10.2433L16.8342 10.2673C16.8289 10.5699 16.6861 10.8766 16.4063 11.1147C16.1242 11.3547 15.7306 11.499 15.3081 11.4994H3.15901C2.73651 11.499 2.34294 11.3547 2.0609 11.1147C1.78102 10.8766 1.63827 10.5699 1.63294 10.2673Z" fill="#F5EFF9" stroke="#626567"/>
</g>
</svg>
