<svg width="15" height="12" viewBox="0 0 15 12" fill="none" xmlns="http://www.w3.org/2000/svg">
<g id="resumeform_resumefileupload_box_icon">
<g id="Vector">
<mask id="path-1-inside-1_412_2255" fill="white">
<path d="M12.2483 0.999949H7.377C7.22904 1.00042 7.08427 0.956917 6.96108 0.874956L6.09238 0.29405C5.80472 0.10169 5.4663 -0.000673887 5.12025 3.33871e-06H2.74881C2.28486 0.000499632 1.84006 0.185023 1.51199 0.513087C1.18393 0.84115 0.999405 1.28596 0.998909 1.74991V2.49987H13.9982C13.9982 1.53492 13.2132 0.999949 12.2483 0.999949Z"/>
</mask>
<path d="M12.2483 0.999949H7.377C7.22904 1.00042 7.08427 0.956917 6.96108 0.874956L6.09238 0.29405C5.80472 0.10169 5.4663 -0.000673887 5.12025 3.33871e-06H2.74881C2.28486 0.000499632 1.84006 0.185023 1.51199 0.513087C1.18393 0.84115 0.999405 1.28596 0.998909 1.74991V2.49987H13.9982C13.9982 1.53492 13.2132 0.999949 12.2483 0.999949Z" fill="#F5EFF9"/>
<path d="M7.377 0.999949V-5.62712e-05L7.3738 -4.60107e-05L7.377 0.999949ZM6.96108 0.874956L6.40521 1.70623L6.40715 1.70752L6.96108 0.874956ZM6.09238 0.29405L6.64825 -0.537218L6.64825 -0.537219L6.09238 0.29405ZM5.12025 3.33871e-06V1.00001L5.1222 1L5.12025 3.33871e-06ZM2.74881 3.33871e-06V-0.999997L2.74774 -0.999996L2.74881 3.33871e-06ZM0.998909 1.74991L-0.001091 1.74884V1.74991H0.998909ZM0.998909 2.49987H-0.001091V3.49987H0.998909V2.49987ZM13.9982 2.49987V3.49987H14.9982V2.49987H13.9982ZM12.2483 -5.1141e-05H7.377V1.99995H12.2483V-5.1141e-05ZM7.3738 -4.60107e-05C7.42404 -0.00020694 7.47319 0.0145653 7.51502 0.0423949L6.40715 1.70752C6.69535 1.89927 7.03404 2.00105 7.3802 1.99994L7.3738 -4.60107e-05ZM7.51696 0.0436882L6.64825 -0.537218L5.53651 1.12532L6.40521 1.70622L7.51696 0.0436882ZM6.64825 -0.537219C6.19552 -0.839959 5.66291 -1.00106 5.11829 -0.999995L5.1222 1C5.26969 0.999713 5.41391 1.04334 5.53651 1.12532L6.64825 -0.537219ZM5.12025 -0.999997H2.74881V1H5.12025V-0.999997ZM2.74774 -0.999996C2.01895 -0.999216 1.32022 -0.709358 0.804886 -0.19402L2.2191 1.22019C2.35989 1.0794 2.55078 1.00022 2.74988 1L2.74774 -0.999996ZM0.804886 -0.19402C0.289548 0.321317 -0.000310838 1.02004 -0.00109041 1.74884L1.99891 1.75098C1.99912 1.55187 2.07831 1.36098 2.2191 1.22019L0.804886 -0.19402ZM-0.001091 1.74991V2.49987H1.99891V1.74991H-0.001091ZM0.998909 3.49987H13.9982V1.49987H0.998909V3.49987ZM14.9982 2.49987C14.9982 1.71721 14.6667 1.05428 14.1111 0.608235C13.579 0.181093 12.9048 -5.1141e-05 12.2483 -5.1141e-05V1.99995C12.5567 1.99995 12.7575 2.08629 12.8591 2.16787C12.9372 2.23055 12.9982 2.31757 12.9982 2.49987H14.9982Z" fill="#626567" mask="url(#path-1-inside-1_412_2255)"/>
</g>
<path id="Vector_2" d="M1.00876 10.2478L1.00907 10.2685C1.01405 10.5964 1.14772 10.9092 1.38124 11.1395C1.61469 11.3697 1.92921 11.4989 2.25704 11.4994C2.25717 11.4994 2.25729 11.4994 2.25742 11.4994H12.7401C12.7402 11.4994 12.7403 11.4994 12.7405 11.4994C13.0683 11.4989 13.3828 11.3697 13.6163 11.1395C13.8498 10.9092 13.9834 10.5964 13.9884 10.2685L13.9887 10.2477L13.9908 10.227L14.4952 5.10364V5.09947L14.4968 5.07955C14.5078 4.94204 14.4903 4.80374 14.4452 4.67334C14.4002 4.54295 14.3287 4.42328 14.2351 4.32187C14.1416 4.22046 14.0281 4.1395 13.9018 4.08408C13.7755 4.02869 13.6392 4.00001 13.5013 3.99985L1.49936 3.99985L1.00876 10.2478ZM1.00876 10.2478L1.00675 10.2273M1.00876 10.2478L1.00675 10.2273M1.00675 10.2273L0.504783 5.10376V5.09947M1.00675 10.2273L0.504783 5.09947M0.504783 5.09947L0.503188 5.07955M0.504783 5.09947L0.503188 5.07955M0.503188 5.07955C0.492178 4.942 0.509756 4.80367 0.554816 4.67324M0.503188 5.07955L0.554816 4.67324M0.554816 4.67324C0.599876 4.54282 0.671442 4.42313 0.765012 4.32172M0.554816 4.67324L0.765012 4.32172M0.765012 4.32172C0.858582 4.2203 0.97213 4.13935 1.09851 4.08396M0.765012 4.32172L1.09851 4.08396M1.09851 4.08396C1.22481 4.0286 1.36118 3.99996 1.49908 3.99985L1.09851 4.08396Z" fill="#F5EFF9" stroke="#626567"/>
</g>
</svg>
