<svg width="13" height="13" viewBox="0 0 13 13" fill="none" xmlns="http://www.w3.org/2000/svg">
<g id="resumeform_certificate_box_date_icon">
<path id="Vector" d="M11.1956 1.73438H2.73407C2.0331 1.73438 1.46484 2.30263 1.46484 3.00361V10.619C1.46484 11.32 2.0331 11.8882 2.73407 11.8882H11.1956C11.8966 11.8882 12.4648 11.32 12.4648 10.619V3.00361C12.4648 2.30263 11.8966 1.73438 11.1956 1.73438Z" stroke="#626567" stroke-linejoin="round"/>
<path id="Vector_2" d="M8.02243 6.38855C8.37292 6.38855 8.65705 6.10443 8.65705 5.75394C8.65705 5.40345 8.37292 5.11932 8.02243 5.11932C7.67194 5.11932 7.38782 5.40345 7.38782 5.75394C7.38782 6.10443 7.67194 6.38855 8.02243 6.38855Z" fill="#626567"/>
<path id="Vector_3" d="M10.1377 6.38855C10.4882 6.38855 10.7724 6.10443 10.7724 5.75394C10.7724 5.40345 10.4882 5.11932 10.1377 5.11932C9.78726 5.11932 9.50313 5.40345 9.50313 5.75394C9.50313 6.10443 9.78726 6.38855 10.1377 6.38855Z" fill="#626567"/>
<path id="Vector_4" d="M8.02231 8.50361C8.3728 8.50361 8.65693 8.21948 8.65693 7.86899C8.65693 7.5185 8.3728 7.23438 8.02231 7.23438C7.67182 7.23438 7.3877 7.5185 7.3877 7.86899C7.3877 8.21948 7.67182 8.50361 8.02231 8.50361Z" fill="#626567"/>
<path id="Vector_5" d="M10.1375 8.50361C10.488 8.50361 10.7722 8.21948 10.7722 7.86899C10.7722 7.5185 10.488 7.23438 10.1375 7.23438C9.78706 7.23438 9.50293 7.5185 9.50293 7.86899C9.50293 8.21948 9.78706 8.50361 10.1375 8.50361Z" fill="#626567"/>
<path id="Vector_6" d="M3.79184 8.50361C4.14233 8.50361 4.42646 8.21948 4.42646 7.86899C4.42646 7.5185 4.14233 7.23438 3.79184 7.23438C3.44135 7.23438 3.15723 7.5185 3.15723 7.86899C3.15723 8.21948 3.44135 8.50361 3.79184 8.50361Z" fill="#626567"/>
<path id="Vector_7" d="M5.90708 8.50361C6.25756 8.50361 6.54169 8.21948 6.54169 7.86899C6.54169 7.5185 6.25756 7.23438 5.90708 7.23438C5.55659 7.23438 5.27246 7.5185 5.27246 7.86899C5.27246 8.21948 5.55659 8.50361 5.90708 8.50361Z" fill="#626567"/>
<path id="Vector_8" d="M3.79184 10.6188C4.14233 10.6188 4.42646 10.3347 4.42646 9.98422C4.42646 9.63374 4.14233 9.34961 3.79184 9.34961C3.44135 9.34961 3.15723 9.63374 3.15723 9.98422C3.15723 10.3347 3.44135 10.6188 3.79184 10.6188Z" fill="#626567"/>
<path id="Vector_9" d="M5.90708 10.6188C6.25756 10.6188 6.54169 10.3347 6.54169 9.98422C6.54169 9.63374 6.25756 9.34961 5.90708 9.34961C5.55659 9.34961 5.27246 9.63374 5.27246 9.98422C5.27246 10.3347 5.55659 10.6188 5.90708 10.6188Z" fill="#626567"/>
<path id="Vector_10" d="M8.02231 10.6188C8.3728 10.6188 8.65693 10.3347 8.65693 9.98422C8.65693 9.63374 8.3728 9.34961 8.02231 9.34961C7.67182 9.34961 7.3877 9.63374 7.3877 9.98422C7.3877 10.3347 7.67182 10.6188 8.02231 10.6188Z" fill="#626567"/>
<g id="Group">
<path id="Vector_11" d="M3.58015 0.888672V1.73483" stroke="#626567" stroke-linecap="round" stroke-linejoin="round"/>
<path id="Vector_12" d="M10.3495 0.888672V1.73483" stroke="#626567" stroke-linecap="round" stroke-linejoin="round"/>
<path id="Vector_13" d="M12.4648 3.84961H1.46484" stroke="#626567" stroke-linejoin="round"/>
</g>
</g>
</svg>
