<svg width="20" height="14" viewBox="0 0 20 14" fill="none" xmlns="http://www.w3.org/2000/svg">
<g id="review_headerbar_function_sort_icon">
<g id="Group">
<path id="Vector" d="M5.5 1.69714H19" stroke="black" stroke-width="2" stroke-linecap="round" stroke-linejoin="round"/>
<path id="Vector_2" d="M5.5 6.57666H19" stroke="black" stroke-width="2" stroke-linecap="round" stroke-linejoin="round"/>
<path id="Vector_3" d="M5.5 11.4563H19" stroke="black" stroke-width="2" stroke-linecap="round" stroke-linejoin="round"/>
<path id="Vector_4" d="M1.75 2.39414C2.16421 2.39414 2.5 2.08205 2.5 1.69707C2.5 1.31209 2.16421 1 1.75 1C1.33579 1 1 1.31209 1 1.69707C1 2.08205 1.33579 2.39414 1.75 2.39414Z" stroke="black" stroke-width="2" stroke-linecap="round" stroke-linejoin="round"/>
<path id="Vector_5" d="M1.75 7.27402C2.16421 7.27402 2.5 6.96193 2.5 6.57695C2.5 6.19197 2.16421 5.87988 1.75 5.87988C1.33579 5.87988 1 6.19197 1 6.57695C1 6.96193 1.33579 7.27402 1.75 7.27402Z" stroke="black" stroke-width="2" stroke-linecap="round" stroke-linejoin="round"/>
<path id="Vector_6" d="M1.75 12.1532C2.16421 12.1532 2.5 11.8411 2.5 11.4561C2.5 11.0711 2.16421 10.759 1.75 10.759C1.33579 10.759 1 11.0711 1 11.4561C1 11.8411 1.33579 12.1532 1.75 12.1532Z" stroke="black" stroke-width="2" stroke-linecap="round" stroke-linejoin="round"/>
</g>
</g>
</svg>
