<svg width="22" height="21" viewBox="0 0 22 21" fill="none" xmlns="http://www.w3.org/2000/svg">
<g id="review_pages_reload_icon">
<path id="Vector" d="M18.2963 5.65902L17.3135 4.51177C16.4802 3.63356 15.4775 2.93466 14.3664 2.4576C13.2554 1.98055 12.0592 1.73531 10.8507 1.73682C5.91802 1.73682 1.91602 5.7524 1.91602 10.7018C1.91602 15.6513 5.91802 19.6668 10.8507 19.6668C12.6986 19.6667 14.5011 19.092 16.01 18.0216C17.519 16.9513 18.6603 15.4381 19.2768 13.6902" stroke="#626567" stroke-width="2" stroke-miterlimit="10" stroke-linecap="round"/>
<path id="Vector_2" d="M21.2744 3.29738V8.46067C21.2744 8.65881 21.196 8.84883 21.0564 8.98893C20.9167 9.12904 20.7273 9.20775 20.5299 9.20775H15.384C14.7204 9.20775 14.3882 8.40323 14.8573 7.93257L20.0036 2.76882C20.4726 2.29722 21.2744 2.63154 21.2744 3.29738Z" fill="black"/>
</g>
</svg>
