<svg width="13" height="10" viewBox="0 0 13 10" fill="none" xmlns="http://www.w3.org/2000/svg">
<g id="review_list_box_header_views_icon">
<path d="M11.7764 4.49444C11.8936 4.65249 11.9521 4.73151 11.9824 4.846C12.0059 4.93476 12.0059 5.06524 11.9824 5.154C11.9521 5.26849 11.8936 5.34751 11.7764 5.50556C10.979 6.58138 8.91747 9 6.5 9C4.08253 9 2.02099 6.58138 1.22357 5.50556C1.10643 5.34751 1.04785 5.26849 1.01759 5.154C0.994135 5.06524 0.994135 4.93476 1.01759 4.846C1.04785 4.73151 1.10643 4.65249 1.22357 4.49444C2.02099 3.41862 4.08253 1 6.5 1C8.91747 1 10.979 3.41862 11.7764 4.49444Z" stroke="#626567" stroke-width="1.5" stroke-linejoin="round"/>
<path d="M8 5C8 5.79529 7.32843 6.44 6.5 6.44C5.67157 6.44 5 5.79529 5 5C5 4.20471 5.67157 3.56 6.5 3.56C7.32843 3.56 8 4.20471 8 5Z" stroke="#626567" stroke-width="1.5" stroke-linejoin="round"/>
</g>
</svg>
