<svg width="16" height="15" viewBox="0 0 16 15" fill="none" xmlns="http://www.w3.org/2000/svg">
<path d="M7.86781 0.000696858C3.59624 -0.0562717 0.109027 3.38708 0.166721 7.60491C0.223685 11.65 3.55936 14.9438 7.65602 15C11.9283 15.0577 15.4148 11.6143 15.3564 7.39651C15.3001 3.35066 11.9645 0.0569443 7.86781 0.000696858ZM12.4841 11.8C12.4695 11.8156 12.4517 11.8277 12.4319 11.8357C12.412 11.8437 12.3906 11.8472 12.3692 11.8461C12.3478 11.845 12.327 11.8393 12.3081 11.8293C12.2892 11.8194 12.2727 11.8054 12.2599 11.7885C11.9333 11.3665 11.5333 11.0053 11.0786 10.7216C10.1489 10.1324 8.97094 9.80794 7.76191 9.80794C6.55289 9.80794 5.3749 10.1324 4.44522 10.7216C3.99056 11.0052 3.59058 11.3663 3.26395 11.7881C3.25112 11.8051 3.23467 11.819 3.21577 11.829C3.19687 11.8389 3.17598 11.8447 3.15459 11.8458C3.13319 11.8469 3.11181 11.8433 3.09197 11.8354C3.07212 11.8274 3.05429 11.8152 3.03975 11.7997C1.96827 10.6575 1.36132 9.16517 1.33521 7.60852C1.27569 4.09991 4.19144 1.16314 7.74621 1.15449C11.301 1.14584 14.1886 3.99607 14.1886 7.50035C14.1898 9.09454 13.581 10.6303 12.4841 11.8Z" fill="#626567"/>
<path d="M7.76095 3.46191C7.04087 3.46191 6.3898 3.72837 5.92715 4.2126C5.4645 4.69683 5.23336 5.36639 5.28558 6.08499C5.39147 7.50019 6.5019 8.65398 7.76095 8.65398C9.02 8.65398 10.1282 7.50019 10.2363 6.08535C10.2904 5.3736 10.0611 4.71017 9.59074 4.21693C9.12626 3.73017 8.47629 3.46191 7.76095 3.46191Z" fill="#626567"/>
</svg>
