<svg width="15" height="12" viewBox="0 0 15 12" fill="none" xmlns="http://www.w3.org/2000/svg">
<mask id="path-1-inside-1_463_1714" fill="white">
<path d="M12.2629 0.999949H7.75997C7.6232 1.00042 7.48938 0.956917 7.37551 0.874956L6.57251 0.29405C6.3066 0.10169 5.99378 -0.000673887 5.6739 3.33871e-06H3.48182C3.05295 0.000499632 2.64179 0.185023 2.33854 0.513087C2.03528 0.84115 1.86472 1.28596 1.86426 1.74991V2.49987H13.8804C13.8804 1.53492 13.1548 0.999949 12.2629 0.999949Z"/>
</mask>
<path d="M12.2629 0.999949H7.75997C7.6232 1.00042 7.48938 0.956917 7.37551 0.874956L6.57251 0.29405C6.3066 0.10169 5.99378 -0.000673887 5.6739 3.33871e-06H3.48182C3.05295 0.000499632 2.64179 0.185023 2.33854 0.513087C2.03528 0.84115 1.86472 1.28596 1.86426 1.74991V2.49987H13.8804C13.8804 1.53492 13.1548 0.999949 12.2629 0.999949Z" fill="#F5EFF9"/>
<path d="M7.75997 0.999949L7.75997 -5.71451e-05L7.75651 -4.51369e-05L7.75997 0.999949ZM7.37551 0.874956L6.78938 1.68518L6.79133 1.68658L7.37551 0.874956ZM6.57251 0.29405L7.15864 -0.51617L7.15863 -0.516172L6.57251 0.29405ZM5.6739 3.33871e-06L5.6739 1.00001L5.67602 1L5.6739 3.33871e-06ZM3.48182 3.33871e-06L3.48182 -0.999997L3.48066 -0.999996L3.48182 3.33871e-06ZM1.86426 1.74991L0.864258 1.74892V1.74991H1.86426ZM1.86426 2.49987H0.864258V3.49987H1.86426V2.49987ZM13.8804 2.49987V3.49987H14.8804V2.49987H13.8804ZM12.2629 -5.1141e-05H7.75997V1.99995H12.2629V-5.1141e-05ZM7.75651 -4.51369e-05C7.83633 -0.000321757 7.90717 0.0255279 7.9597 0.0633343L6.79133 1.68658C7.0716 1.88831 7.41007 2.00117 7.76344 1.99994L7.75651 -4.51369e-05ZM7.96164 0.0647362L7.15864 -0.51617L5.98638 1.10427L6.78939 1.68518L7.96164 0.0647362ZM7.15863 -0.516172C6.72637 -0.828876 6.20867 -1.00113 5.67178 -0.999994L5.67602 1C5.77889 0.999783 5.88684 1.03226 5.98639 1.10427L7.15863 -0.516172ZM5.6739 -0.999997H3.48182V1H5.6739V-0.999997ZM3.48066 -0.999996C2.7605 -0.999163 2.08757 -0.688615 1.60421 -0.165706L3.07287 1.19188C3.19601 1.05866 3.34541 1.00016 3.48297 1L3.48066 -0.999996ZM1.60421 -0.165706C1.12328 0.354572 0.864955 1.04434 0.864258 1.74892L2.86426 1.7509C2.86448 1.52757 2.94729 1.32773 3.07287 1.19188L1.60421 -0.165706ZM0.864258 1.74991V2.49987H2.86426V1.74991H0.864258ZM1.86426 3.49987H13.8804V1.49987H1.86426V3.49987ZM14.8804 2.49987C14.8804 1.74629 14.587 1.08916 14.0618 0.633027C13.5538 0.191813 12.9018 -5.1141e-05 12.2629 -5.1141e-05V1.99995C12.5159 1.99995 12.6727 2.07557 12.7504 2.14308C12.811 2.19567 12.8804 2.2885 12.8804 2.49987H14.8804Z" fill="#626567" mask="url(#path-1-inside-1_463_1714)"/>
<path d="M1.91198 10.2692L1.91171 10.2501L1.90999 10.2311L1.44583 5.10575V5.10113L1.44446 5.0827C1.43389 4.93974 1.45086 4.79642 1.49371 4.66223C1.53656 4.52807 1.60382 4.4075 1.6893 4.30727C1.7747 4.20714 1.87604 4.12986 1.98552 4.07795C2.09484 4.02611 2.21111 4.00007 2.32741 4L13.4215 4C13.5377 4.00016 13.6539 4.02624 13.7631 4.07807C13.8725 4.13 13.9738 4.20729 14.0592 4.30742C14.1446 4.40765 14.2119 4.5282 14.2547 4.66233C14.2975 4.79649 14.3145 4.93978 14.3039 5.0827L14.3025 5.10113V5.10564L13.8361 10.2309L13.8343 10.25L13.8341 10.2692C13.8293 10.609 13.701 10.9261 13.4876 11.1537C13.2755 11.38 12.9983 11.4991 12.7182 11.4995C12.7181 11.4995 12.718 11.4995 12.7179 11.4995H3.02818C3.02807 11.4995 3.02795 11.4995 3.02784 11.4995C2.74779 11.4991 2.47058 11.38 2.25846 11.1537C2.04505 10.9261 1.91675 10.609 1.91198 10.2692Z" fill="#F5EFF9" stroke="#626567"/>
</svg>
