<svg width="16" height="14" viewBox="0 0 16 14" fill="none" xmlns="http://www.w3.org/2000/svg">
<path d="M13.3846 1H2.61538C1.72323 1 1 1.72323 1 2.61538V11.2308C1 12.1229 1.72323 12.8462 2.61538 12.8462H13.3846C14.2768 12.8462 15 12.1229 15 11.2308V2.61538C15 1.72323 14.2768 1 13.3846 1Z" stroke="#626567" stroke-width="1.5" stroke-linejoin="round"/>
<path d="M10.6922 5.30717C11.2869 5.30717 11.7691 4.82501 11.7691 4.23024C11.7691 3.63548 11.2869 3.15332 10.6922 3.15332C10.0974 3.15332 9.61523 3.63548 9.61523 4.23024C9.61523 4.82501 10.0974 5.30717 10.6922 5.30717Z" stroke="#626567" stroke-width="1.5" stroke-miterlimit="10"/>
<path d="M9.61538 9.60872L6.56433 6.56338C6.37018 6.36928 6.10923 6.25665 5.83481 6.24852C5.5604 6.24039 5.29323 6.33737 5.08793 6.51963L1 10.1542" stroke="#626567" stroke-width="1.5" stroke-linecap="round" stroke-linejoin="round"/>
<path d="M6.92285 12.8469L11.0737 8.69607C11.2635 8.50586 11.5176 8.39349 11.7861 8.38104C12.0545 8.36859 12.3179 8.45695 12.5245 8.62876L14.9998 10.6931" stroke="#626567" stroke-width="1.5" stroke-linecap="round" stroke-linejoin="round"/>
</svg>
