<svg width="16" height="15" viewBox="0 0 16 15" fill="none" xmlns="http://www.w3.org/2000/svg">
<rect width="16" height="15" fill="black"/>
<g id="Moblie / main">
<rect width="390" height="3077" transform="translate(-164 -427)" fill="white"/>
<g id="main_best_preview">
<g id="main_best_box">
<mask id="path-1-inside-1_41_101" fill="white">
<path d="M-142 -130H204V34H-142V-130Z"/>
</mask>
<path d="M204 33H-142V35H204V33Z" fill="#BDC0C4" mask="url(#path-1-inside-1_41_101)"/>
</g>
<g id="main_best_coments">
<path id="main_best_coments_icon" d="M1.32698 2.63803L1.99524 2.97852L1.32698 2.63803ZM1.7682 13.2985L1.23787 12.7681H1.23787L1.7682 13.2985ZM13.362 10.9397L13.0215 10.2714H13.0215L13.362 10.9397ZM14.673 9.62864L14.0048 9.28815V9.28815L14.673 9.62864ZM14.673 2.63803L14.0048 2.97852V2.97852L14.673 2.63803ZM13.362 1.32698L13.7025 0.658726V0.658726L13.362 1.32698ZM2.63803 1.32698L2.97852 1.99524L2.63803 1.32698ZM3.50711 11.5596L4.03744 12.0899L3.50711 11.5596ZM1.75 5.8C1.75 4.94755 1.75058 4.35331 1.78838 3.89068C1.82546 3.4368 1.8946 3.17604 1.99524 2.97852L0.658726 2.29754C0.432385 2.74175 0.338025 3.2219 0.293363 3.76853C0.249417 4.30641 0.25 4.9723 0.25 5.8H1.75ZM1.75 6.6V5.8H0.25V6.6H1.75ZM0.25 6.6V11.2667H1.75V6.6H0.25ZM0.25 11.2667V12.9803H1.75V11.2667H0.25ZM0.25 12.9803C0.25 14.0494 1.54257 14.5848 2.29853 13.8288L1.23787 12.7681C1.42686 12.5791 1.75 12.713 1.75 12.9803H0.25ZM2.29853 13.8288L4.03744 12.0899L2.97678 11.0292L1.23787 12.7681L2.29853 13.8288ZM10.2 10.5167H4.21421V12.0167H10.2V10.5167ZM13.0215 10.2714C12.824 10.3721 12.5632 10.4412 12.1093 10.4783C11.6467 10.5161 11.0525 10.5167 10.2 10.5167V12.0167C11.0277 12.0167 11.6936 12.0173 12.2315 11.9733C12.7781 11.9286 13.2582 11.8343 13.7025 11.6079L13.0215 10.2714ZM14.0048 9.28815C13.7891 9.71151 13.4448 10.0557 13.0215 10.2714L13.7025 11.6079C14.4081 11.2484 14.9817 10.6747 15.3413 9.96913L14.0048 9.28815ZM14.25 6.46666C14.25 7.31912 14.2494 7.91336 14.2116 8.37599C14.1745 8.82986 14.1054 9.09063 14.0048 9.28815L15.3413 9.96913C15.5676 9.52491 15.662 9.04477 15.7066 8.49813C15.7506 7.96025 15.75 7.29437 15.75 6.46666H14.25ZM14.25 5.8V6.46666H15.75V5.8H14.25ZM14.0048 2.97852C14.1054 3.17604 14.1745 3.4368 14.2116 3.89068C14.2494 4.35331 14.25 4.94755 14.25 5.8H15.75C15.75 4.9723 15.7506 4.30641 15.7066 3.76853C15.662 3.22189 15.5676 2.74175 15.3413 2.29754L14.0048 2.97852ZM13.0215 1.99524C13.4448 2.21095 13.7891 2.55516 14.0048 2.97852L15.3413 2.29754C14.9817 1.59193 14.4081 1.01825 13.7025 0.658726L13.0215 1.99524ZM10.2 1.75C11.0525 1.75 11.6467 1.75058 12.1093 1.78838C12.5632 1.82546 12.824 1.8946 13.0215 1.99524L13.7025 0.658726C13.2582 0.432385 12.7781 0.338025 12.2315 0.293363C11.6936 0.249417 11.0277 0.25 10.2 0.25V1.75ZM5.8 1.75H10.2V0.25H5.8V1.75ZM2.97852 1.99524C3.17604 1.8946 3.4368 1.82546 3.89068 1.78838C4.35331 1.75058 4.94755 1.75 5.8 1.75V0.25C4.9723 0.25 4.30641 0.249417 3.76853 0.293363C3.22189 0.338025 2.74175 0.432385 2.29754 0.658726L2.97852 1.99524ZM1.99524 2.97852C2.21095 2.55516 2.55516 2.21095 2.97852 1.99524L2.29754 0.658726C1.59193 1.01825 1.01825 1.59193 0.658726 2.29754L1.99524 2.97852ZM4.03744 12.0899C4.08432 12.043 4.14791 12.0167 4.21421 12.0167V10.5167C3.75009 10.5167 3.30497 10.701 2.97678 11.0292L4.03744 12.0899Z" fill="#626567"/>
</g>
</g>
</g>
</svg>
