<svg width="12" height="11" viewBox="0 0 12 11" fill="none" xmlns="http://www.w3.org/2000/svg">
<path id="review_list_box_header_comments_icon" d="M1.32698 2.63803L0.658726 2.29754L0.658726 2.29754L1.32698 2.63803ZM1.77342 9.84811L1.23438 9.32663L1.23438 9.32663L1.77342 9.84811ZM8.61616 8.51633L8.46212 7.78231L8.46212 7.78232L8.61616 8.51633ZM10.936 6.19644L11.6701 6.35048L11.6701 6.35048L10.936 6.19644ZM10.936 3.38384L11.6701 3.2298L11.6701 3.2298L10.936 3.38384ZM8.61616 1.06396L8.46212 1.79797L8.46212 1.79797L8.61616 1.06396ZM2.63803 1.32698L2.97852 1.99524L2.97852 1.99524L2.63803 1.32698ZM2.70517 8.88498L2.16614 8.3635L2.70517 8.88498ZM1.00047 4.38464C0.586253 4.38464 0.250466 4.72043 0.250466 5.13464C0.250466 5.54886 0.586253 5.88464 1.00047 5.88464V4.38464ZM1.00093 5.13417L0.250941 5.13078L1.00093 5.13417ZM1.75093 5.13756C1.75676 3.84619 1.81043 3.34123 1.99524 2.97852L0.658726 2.29754C0.282295 3.03632 0.256389 3.92503 0.250941 5.13078L1.75093 5.13756ZM0.25 5.13511V5.8H1.75V5.13511H0.25ZM0.25 5.8V8.58023H1.75V5.8H0.25ZM0.25 8.58023V8.58028H1.75V8.58023H0.25ZM0.25 8.58028V9.53522H1.75V8.58028H0.25ZM0.25 9.53522C0.25 10.6139 1.56244 11.1449 2.31246 10.3696L1.23438 9.32663C1.42189 9.13281 1.75 9.26555 1.75 9.53522H0.25ZM2.31246 10.3696L3.24421 9.40646L2.16614 8.3635L1.23438 9.32663L2.31246 10.3696ZM7.20986 7.83028H3.42389V9.33028H7.20986V7.83028ZM8.46212 7.78232C8.25275 7.82625 7.98213 7.83028 7.20986 7.83028V9.33028C7.90631 9.33028 8.37004 9.33431 8.7702 9.25034L8.46212 7.78232ZM10.202 6.0424C10.0187 6.91622 9.33594 7.59894 8.46212 7.78231L8.7702 9.25034C10.2266 8.9447 11.3644 7.80685 11.6701 6.35048L10.202 6.0424ZM10.25 4.79014C10.25 5.56241 10.246 5.83304 10.202 6.0424L11.6701 6.35048C11.754 5.95032 11.75 5.48659 11.75 4.79014H10.25ZM10.202 3.53788C10.246 3.74725 10.25 4.01787 10.25 4.79014H11.75C11.75 4.09369 11.754 3.62996 11.6701 3.2298L10.202 3.53788ZM8.46212 1.79797C9.33594 1.98135 10.0187 2.66406 10.202 3.53788L11.6701 3.2298C11.3644 1.77344 10.2266 0.635579 8.7702 0.329946L8.46212 1.79797ZM7.20986 1.75C7.98213 1.75 8.25276 1.75403 8.46212 1.79797L8.7702 0.329946C8.37004 0.245969 7.90631 0.25 7.20986 0.25V1.75ZM5.8 1.75H7.20986V0.25H5.8V1.75ZM2.97852 1.99524C3.17604 1.8946 3.4368 1.82546 3.89068 1.78838C4.35331 1.75058 4.94755 1.75 5.8 1.75V0.25C4.9723 0.25 4.30641 0.249417 3.76853 0.293363C3.2219 0.338025 2.74175 0.432385 2.29754 0.658726L2.97852 1.99524ZM1.99524 2.97852C2.21095 2.55516 2.55516 2.21095 2.97852 1.99524L2.29754 0.658725C1.59193 1.01825 1.01825 1.59193 0.658726 2.29754L1.99524 2.97852ZM3.24421 9.40646C3.29131 9.35777 3.35615 9.33028 3.42389 9.33028V7.83028C2.94971 7.83028 2.49583 8.0227 2.16614 8.3635L3.24421 9.40646ZM1.00047 4.38464C0.585995 4.38464 0.25 4.72064 0.25 5.13511H1.75C1.75 5.54907 1.41442 5.88464 1.00047 5.88464V4.38464ZM0.250941 5.13078C0.252745 4.73152 0.57459 4.38464 1.00047 4.38464V5.88464C1.42686 5.88464 1.74912 5.53734 1.75093 5.13756L0.250941 5.13078Z" fill="#626567"/>
</svg>
