<svg width="15" height="10" viewBox="0 0 15 10" fill="none" xmlns="http://www.w3.org/2000/svg">
<g id="aboard_detail_info_status_views">
<path id="Vector" d="M7.49449 1C9.75604 1 12.0759 2.30894 13.9022 4.92682C13.9544 5.00237 13.9829 5.09167 13.9843 5.18345C13.9857 5.27522 13.9599 5.36535 13.9101 5.44245C12.5068 7.63901 10.218 9.35679 7.49449 9.35679C4.80058 9.35679 2.46475 7.63378 1.05889 5.43229C1.01024 5.35671 0.984375 5.26872 0.984375 5.17883C0.984375 5.08894 1.01024 5.00096 1.05889 4.92537C2.46794 2.74912 4.8209 1 7.49449 1Z" stroke="#626567" stroke-linecap="round" stroke-linejoin="round"/>
<path id="Vector_2" d="M7.48531 7.49911C6.20327 7.49911 5.16398 6.45981 5.16398 5.17778C5.16398 3.89574 6.20327 2.85645 7.48531 2.85645C8.76735 2.85645 9.80664 3.89574 9.80664 5.17778C9.80664 6.45981 8.76735 7.49911 7.48531 7.49911Z" stroke="#626567" stroke-miterlimit="10"/>
</g>
</svg>
