<svg width="11" height="10" viewBox="0 0 11 10" fill="none" xmlns="http://www.w3.org/2000/svg">
<g id="board_detail_header_btn_like_icon">
<path id="Vector" d="M10.0833 3.7357L6.50833 3.49578L7.03542 1.70838C7.17292 1.17656 7.01754 0.871266 6.52048 0.736712L5.7255 0.539778C5.70669 0.535428 5.68677 0.536415 5.66864 0.542598C5.65051 0.548781 5.63511 0.559837 5.62467 0.574167L2.66842 4.6196C2.65202 4.64287 2.62907 4.66208 2.60175 4.67542C2.57443 4.68875 2.54366 4.69576 2.51235 4.69578H0V8.85397H2.69523C2.81346 8.85395 2.93093 8.87056 3.0431 8.90316L4.79165 9.41159C4.97859 9.46599 5.17437 9.49373 5.37144 9.49376H9.449C9.88442 9.49376 10.1709 9.22345 10.2564 8.85078L11 6.00653V4.53543C11 4.09438 10.5875 3.77569 10.0833 3.7357Z" fill="#626567"/>
</g>
</svg>
