<svg width="11" height="10" viewBox="0 0 11 10" fill="none" xmlns="http://www.w3.org/2000/svg">
<g id="board_detail_header_btn_dislike_icon">
<path id="Vector" d="M0.916667 6.29517L4.49281 6.53509L3.96573 8.32248C3.8264 8.8543 3.98177 9.1596 4.47883 9.29456L5.27381 9.49149C5.29263 9.49584 5.31254 9.49485 5.33067 9.48867C5.3488 9.48249 5.3642 9.47143 5.37465 9.4571L8.3309 5.41167C8.34729 5.3884 8.37024 5.36919 8.39756 5.35585C8.42488 5.34252 8.45566 5.33551 8.48696 5.33549H11V1.17689H8.30477C8.18654 1.17692 8.06907 1.16031 7.9569 1.12771L6.20835 0.619282C6.02141 0.564882 5.82563 0.537136 5.62856 0.537109H1.551C1.11558 0.537109 0.829125 0.807418 0.743646 1.18009L0 4.02433V5.49544C0 5.93649 0.4125 6.25518 0.916667 6.29517Z" fill="#626567"/>
<path id="Vector_2" d="M8.17331 5.4787L8.15039 5.51869C8.18354 5.4574 8.23777 5.40666 8.30554 5.37354C8.25244 5.39884 8.20709 5.43491 8.17331 5.4787Z" fill="#626567"/>
</g>
</svg>
